<svg xmlns="http://www.w3.org/2000/svg" width="1440" height="435" viewBox="0 0 1440 435">
  <g fill="none" fill-rule="evenodd" transform="translate(0 -23)">
    <rect width="1552" height="229"/>
    <path fill="#3B4883" d="M-361,269.392379 C-298.376926,245.737722 -252.016433,237.852836 -221.918521,245.737722 C-191.820609,253.622608 -149.586443,264.976843 -95.2160219,279.800429 L-50.7973297,279.800429 L153.091749,287.369919 L161.101678,279.800429 L260.133516,279.800429 C300.911332,292.416246 322.999315,296.831782 326.397467,293.047037 C331.494694,287.369919 442.177337,293.047037 453.099966,293.047037 C464.022595,293.047037 584.171517,276.96187 600.191373,287.369919 C616.211229,297.777968 679.562479,290.681571 684.659706,297.777968 C689.756933,304.874366 708.68949,316.701694 723.981171,304.874366 C739.272852,293.047037 781.507018,294.93941 802.624101,287.369919 C823.741185,279.800429 810.634029,279.800429 835.391989,279.800429 C860.149949,279.800429 855.780897,275.069497 875.44163,269.392379 C895.102362,263.715262 903.11229,258.038144 924.957549,263.715262 C946.802807,269.392379 956.997261,253.307212 973.745293,245.737722 C990.493324,238.168231 992.67785,238.168231 999.231428,238.168231 C1003.60048,238.168231 1003.60048,235.48737 999.231428,230.125648 L1015.97946,219.717599 C1016.46491,203.001641 1020.59124,191.9628 1028.35844,186.601078 C1040.00924,178.558494 1056.0291,148.280533 1053.84457,141.657229 C1051.66005,135.033925 1047.291,133.614645 1075.68983,126.518248 C1104.08867,119.421851 1144.13831,103.336684 1155.06094,95.7671932 C1165.98357,88.1977027 1169.62444,88.1977027 1178.36255,78.7358397 C1187.10065,69.2739767 1201.66416,73.0587219 1219.14036,69.2739767 C1236.61657,65.4892315 1214.77131,58.8659274 1229.33482,53.1888096 C1243.89832,47.5116918 1247.5392,49.8771576 1260.64635,47.5116918 C1273.75351,45.146226 1286.86066,42.3076671 1289.77337,36.1574562 C1292.68607,30.0072452 1314.53132,22.4377548 1332.00753,23.8570343 C1349.48374,25.2763137 1385.8925,29.5341521 1385.8925,36.1574562 C1385.8925,42.7807603 1401.2686,34.6660714 1407.73776,36.1574562 C1414.20692,37.648841 1455.79733,54.1349959 1468.17631,55.5542754 C1480.55529,56.9735548 1503.8569,53.1888096 1522.78946,53.1888096 C1541.72201,53.1888096 1559.19822,53.6619028 1562.8391,58.8659274 C1566.47997,64.0699521 1583.228,87.2515164 1589.78158,88.6707959 C1596.33516,90.0900753 1599.24786,99.5519384 1599.24786,102.86359 C1599.24786,106.175242 1616.72407,109.013801 1622.54947,109.486895 C1628.37487,109.959988 1678.61897,119.421851 1679.34714,131.722273 C1680.07532,144.022695 1680.07532,150.172905 1693.91065,150.645999 C1703.1342,150.961394 1718.91133,158.84628 1741.24204,174.300656 L1766,193.224382 L1766,457.683453 L-361,457.683453 L-361,269.392379 Z"/>
  </g>
</svg>
