<svg xmlns="http://www.w3.org/2000/svg" width="1440" height="435" viewBox="0 0 1440 435">
  <path fill="#3B4883" fill-rule="evenodd" d="M-361,835.392379 C-298.376926,811.737722 -252.016433,803.852836 -221.918521,811.737722 C-191.820609,819.622608 -149.586443,830.976843 -95.2160219,845.800429 L-50.7973297,845.800429 L153.091749,853.369919 L161.101678,845.800429 L260.133516,845.800429 C300.911332,858.416246 322.999315,862.831782 326.397467,859.047037 C331.494694,853.369919 442.177337,859.047037 453.099966,859.047037 C464.022595,859.047037 584.171517,842.96187 600.191373,853.369919 C616.211229,863.777968 679.562479,856.681571 684.659706,863.777968 C689.756933,870.874366 708.68949,882.701694 723.981171,870.874366 C739.272852,859.047037 781.507018,860.93941 802.624101,853.369919 C823.741185,845.800429 810.634029,845.800429 835.391989,845.800429 C860.149949,845.800429 855.780897,841.069497 875.44163,835.392379 C895.102362,829.715262 903.11229,824.038144 924.957549,829.715262 C946.802807,835.392379 956.997261,819.307212 973.745293,811.737722 C990.493324,804.168231 992.67785,804.168231 999.231428,804.168231 C1003.60048,804.168231 1003.60048,801.48737 999.231428,796.125648 L1015.97946,785.717599 C1016.46491,769.001641 1020.59124,757.9628 1028.35844,752.601078 C1040.00924,744.558494 1056.0291,714.280533 1053.84457,707.657229 C1051.66005,701.033925 1047.291,699.614645 1075.68983,692.518248 C1104.08867,685.421851 1144.13831,669.336684 1155.06094,661.767193 C1165.98357,654.197703 1169.62444,654.197703 1178.36255,644.73584 C1187.10065,635.273977 1201.66416,639.058722 1219.14036,635.273977 C1236.61657,631.489232 1214.77131,624.865927 1229.33482,619.18881 C1243.89832,613.511692 1247.5392,615.877158 1260.64635,613.511692 C1273.75351,611.146226 1286.86066,608.307667 1289.77337,602.157456 C1292.68607,596.007245 1314.53132,588.437755 1332.00753,589.857034 C1349.48374,591.276314 1385.8925,595.534152 1385.8925,602.157456 C1385.8925,608.78076 1401.2686,600.666071 1407.73776,602.157456 C1414.20692,603.648841 1455.79733,620.134996 1468.17631,621.554275 C1480.55529,622.973555 1503.8569,619.18881 1522.78946,619.18881 C1541.72201,619.18881 1559.19822,619.661903 1562.8391,624.865927 C1566.47997,630.069952 1583.228,653.251516 1589.78158,654.670796 C1596.33516,656.090075 1599.24786,665.551938 1599.24786,668.86359 C1599.24786,672.175242 1616.72407,675.013801 1622.54947,675.486895 C1628.37487,675.959988 1678.61897,685.421851 1679.34714,697.722273 C1680.07532,710.022695 1680.07532,716.172905 1693.91065,716.645999 C1703.1342,716.961394 1718.91133,724.84628 1741.24204,740.300656 L1766,759.224382 L1766,1023.68345 L-361,1023.68345 L-361,835.392379 Z" transform="translate(0 -589)"/>
</svg>
