<svg xmlns="http://www.w3.org/2000/svg" width="1440" height="549" viewBox="0 0 1440 549">
  <path fill="#6671AB" fill-rule="evenodd" d="M19,588.515889 C70,575.859193 100.166667,566.959955 109.5,561.818172 C123.5,554.105499 147.5,541.053282 159.5,541.053282 C171.5,541.053282 231.5,541.053282 237,541.053282 C242.5,541.053282 264,542.833129 276,548.172673 C288,553.512216 324,552.325651 337,553.512216 C350,554.698781 408.5,570.124128 422,561.818172 C435.5,553.512216 574.5,565.97115 585.5,553.512216 C596.5,541.053282 632.5,526.814499 648.5,533.93389 C664.5,541.053282 663.5,529.18763 677.5,526.814499 C691.5,524.441369 770,490.624261 787,482.911588 C804,475.198914 841.5,469.859371 859,482.911588 C876.5,495.963805 917,526.814499 945.5,533.93389 C974,541.053282 1054,606.314366 1067.5,611.060627 C1081,615.806888 1135,598.601693 1161.5,588.515889 C1188,578.430085 1235,588.515889 1259.5,588.515889 C1284,588.515889 1365,555.292064 1391,548.172673 C1417,541.053282 1464.5,519.695108 1474,526.814499 C1480.33333,531.56076 1480.33333,743.955927 1474,1164 L-3,1164 L-3,588.515889 L19,588.515889 Z" transform="translate(0 -475)"/>
</svg>
