<svg xmlns="http://www.w3.org/2000/svg" xmlns:xlink="http://www.w3.org/1999/xlink" width="1440" height="272" viewBox="0 0 1440 272">
  <defs>
    <rect id="dark-layer-4---small-2-a" width="1552" height="290"/>
  </defs>
  <g fill="none" fill-rule="evenodd" transform="translate(-81 -18)">
    <mask id="dark-layer-4---small-2-b" fill="#fff">
      <use xlink:href="#dark-layer-4---small-2-a"/>
    </mask>
    <path fill="#6671AB" d="M100,127.23227 C151,115.053186 181.166667,106.489768 190.5,101.542015 C204.5,94.1203854 228.5,81.5607049 240.5,81.5607049 C252.5,81.5607049 312.5,81.5607049 318,81.5607049 C323.5,81.5607049 345,83.2733886 357,88.4114397 C369,93.5494908 405,92.4077017 418,93.5494908 C431,94.6912799 489.5,109.534539 503,101.542015 C516.5,93.5494908 655.5,105.538277 666.5,93.5494908 C677.5,81.5607049 713.5,67.8592353 729.5,74.7099701 C745.5,81.5607049 744.5,70.1428136 758.5,67.8592353 C772.5,65.575657 851,33.0346667 868,25.6130373 C885,18.191408 922.5,13.0533569 940,25.6130373 C957.5,38.1727178 998,67.8592353 1026.5,74.7099701 C1055,81.5607049 1135,144.359107 1148.5,148.926264 C1162,153.49342 1216,136.937478 1242.5,127.23227 C1269,117.527063 1316,127.23227 1340.5,127.23227 C1365,127.23227 1446,95.2621745 1472,88.4114397 C1498,81.5607049 1545.5,61.0085005 1555,67.8592353 C1561.33333,72.4263918 1561.33333,276.806647 1555,681 L78,681 L78,127.23227 L100,127.23227 Z" mask="url(#dark-layer-4---small-2-b)"/>
  </g>
</svg>
