<svg xmlns="http://www.w3.org/2000/svg" width="1440" height="301" viewBox="0 0 1440 301">
  <path fill="#A2A9CA" fill-rule="evenodd" d="M-14,737.735065 C97.3333333,737.735065 159.333333,735.401731 172,730.735065 C191,723.735065 214,721.735065 241.5,723.735065 C269,725.735065 327.5,733.735065 337,742.735065 C346.5,751.735065 421.5,793.235065 443.5,791.735065 C465.5,790.235065 540,784.235065 564.5,791.735065 C589,799.235065 720,822.235065 738,821.735065 C756,821.235065 822,830.735065 835,835.735065 C848,840.735065 887,838.235065 903.5,840.735065 C920,843.235065 947.5,859.735065 965,858.735065 C982.5,857.735065 1042.5,870.235065 1065,871.235065 C1087.5,872.235065 1320,904.235065 1347.5,894.735065 C1375,885.235065 1438,895.735065 1446,904.235065 C1451.33333,909.901731 1454,1015.40173 1454,1220.73506 L-14,1213.73506 L-14,737.735065 Z" transform="translate(0 -723)"/>
</svg>
