<svg xmlns="http://www.w3.org/2000/svg" viewBox="0 0 2538.89 1841.45"><defs><style>.cls-1{fill:none;}.cls-2,.cls-3{fill:#fff;stroke:#fff;stroke-miterlimit:10;}.cls-2{stroke-width:0.1px;}.cls-3{stroke-width:0.05px;}</style></defs><title>starsAsset 2</title><g id="Layer_2" data-name="Layer 2"><g id="Layer_1-2" data-name="Layer 1"><rect class="cls-1" x="1737.49" y="745.42" width="5.4" height="5.4"/><circle class="cls-2" cx="1740.19" cy="748.12" r="2.65"/><rect class="cls-1" x="1704.53" y="642.61" width="5.4" height="5.4"/><circle class="cls-2" cx="1707.23" cy="645.31" r="2.65"/><rect class="cls-1" x="1663.55" y="502.71" width="5.4" height="5.4"/><circle class="cls-2" cx="1666.25" cy="505.41" r="2.65"/><rect class="cls-1" x="1610.08" y="386" width="5.4" height="5.4"/><circle class="cls-2" cx="1612.78" cy="388.7" r="2.65"/><rect class="cls-1" x="1571.8" y="495.61" width="5.4" height="5.4"/><circle class="cls-2" cx="1574.5" cy="498.31" r="2.65"/><rect class="cls-1" x="1543.28" y="599.94" width="5.4" height="5.4"/><circle class="cls-2" cx="1545.98" cy="602.64" r="2.65"/><rect class="cls-1" x="1551.65" y="776.24" width="5.4" height="5.4"/><circle class="cls-2" cx="1554.35" cy="778.94" r="2.65"/><rect class="cls-1" x="1474.88" y="448.54" width="5.4" height="5.4"/><circle class="cls-2" cx="1477.58" cy="451.24" r="2.65"/><rect class="cls-1" x="1500.15" y="695.47" width="5.4" height="5.4"/><circle class="cls-2" cx="1502.85" cy="698.17" r="2.65"/><rect class="cls-1" x="1410.42" y="429.48" width="5.4" height="5.4"/><circle class="cls-2" cx="1413.12" cy="432.18" r="2.65"/><rect class="cls-1" x="1413.64" y="505.65" width="5.4" height="5.4"/><circle class="cls-2" cx="1416.34" cy="508.35" r="2.65"/><rect class="cls-1" x="1391.36" y="425.87" width="5.4" height="5.4"/><circle class="cls-2" cx="1394.06" cy="428.57" r="2.65"/><rect class="cls-1" x="1386.6" y="674.44" width="5.4" height="5.4"/><circle class="cls-2" cx="1389.3" cy="677.14" r="2.65"/><rect class="cls-1" x="1329.02" y="550.44" width="5.4" height="5.4"/><circle class="cls-2" cx="1331.72" cy="553.14" r="2.65"/><rect class="cls-1" x="1286.66" y="575.18" width="5.4" height="5.4"/><circle class="cls-2" cx="1289.36" cy="577.88" r="2.65"/><rect class="cls-1" x="1333.7" y="801.39" width="5.4" height="5.4"/><circle class="cls-2" cx="1336.4" cy="804.09" r="2.65"/><rect class="cls-1" x="1233.05" y="470.62" width="5.4" height="5.4"/><circle class="cls-2" cx="1235.75" cy="473.32" r="2.65"/><rect class="cls-1" x="1242.8" y="625.02" width="5.4" height="5.4"/><circle class="cls-2" cx="1245.5" cy="627.72" r="2.65"/><rect class="cls-1" x="1265.03" y="837.2" width="5.4" height="5.4"/><circle class="cls-2" cx="1267.73" cy="839.9" r="2.65"/><rect class="cls-1" x="1076.92" y="427.65" width="5.4" height="5.4"/><circle class="cls-2" cx="1079.62" cy="430.35" r="2.65"/><rect class="cls-1" x="1002.34" y="389.23" width="5.4" height="5.4"/><circle class="cls-2" cx="1005.04" cy="391.93" r="2.65"/><rect class="cls-1" x="1152.51" y="849.07" width="5.4" height="5.4"/><circle class="cls-2" cx="1155.21" cy="851.77" r="2.65"/><rect class="cls-1" x="1002.4" y="561.75" width="5.4" height="5.4"/><circle class="cls-2" cx="1005.1" cy="564.45" r="2.65"/><rect class="cls-1" x="946.2" y="481.15" width="5.4" height="5.4"/><circle class="cls-2" cx="948.9" cy="483.85" r="2.65"/><rect class="cls-1" x="959.57" y="595.96" width="5.4" height="5.4"/><circle class="cls-2" cx="962.27" cy="598.66" r="2.65"/><rect class="cls-1" x="1009.41" y="791.97" width="5.4" height="5.4"/><circle class="cls-2" cx="1012.11" cy="794.67" r="2.65"/><rect class="cls-1" x="1031.93" y="912.89" width="5.4" height="5.4"/><circle class="cls-2" cx="1034.63" cy="915.59" r="2.65"/><rect class="cls-1" x="825.16" y="592.01" width="5.4" height="5.4"/><circle class="cls-2" cx="827.86" cy="594.71" r="2.65"/><rect class="cls-1" x="774.51" y="561.52" width="5.4" height="5.4"/><circle class="cls-2" cx="777.21" cy="564.22" r="2.65"/><rect class="cls-1" x="736.16" y="581.79" width="5.4" height="5.4"/><circle class="cls-2" cx="738.86" cy="584.49" r="2.65"/><rect class="cls-1" x="715.91" y="613.5" width="5.4" height="5.4"/><circle class="cls-2" cx="718.61" cy="616.2" r="2.65"/><rect class="cls-1" x="667.74" y="602.98" width="5.4" height="5.4"/><circle class="cls-2" cx="670.44" cy="605.68" r="2.65"/><rect class="cls-1" x="639.66" y="587.6" width="5.4" height="5.4"/><circle class="cls-2" cx="642.36" cy="590.3" r="2.65"/><rect class="cls-1" x="598.64" y="602.62" width="5.4" height="5.4"/><circle class="cls-2" cx="601.34" cy="605.32" r="2.65"/><rect class="cls-1" x="646.76" y="796.17" width="5.4" height="5.4"/><circle class="cls-2" cx="649.46" cy="798.87" r="2.65"/><rect class="cls-1" x="619.02" y="765.37" width="5.4" height="5.4"/><circle class="cls-2" cx="621.72" cy="768.07" r="2.65"/><rect class="cls-1" x="653.87" y="877.35" width="5.4" height="5.4"/><circle class="cls-2" cx="656.57" cy="880.05" r="2.65"/><rect class="cls-1" x="708.68" y="1007.75" width="5.4" height="5.4"/><circle class="cls-2" cx="711.38" cy="1010.45" r="2.65"/><rect class="cls-1" x="677.48" y="1006.86" width="5.4" height="5.4"/><circle class="cls-2" cx="680.18" cy="1009.56" r="2.65"/><rect class="cls-1" x="656.66" y="1053.99" width="5.4" height="5.4"/><circle class="cls-2" cx="659.36" cy="1056.69" r="2.65"/><rect class="cls-1" x="538.27" y="942.64" width="5.4" height="5.4"/><circle class="cls-2" cx="540.97" cy="945.34" r="2.65"/><rect class="cls-1" x="402.57" y="731.6" width="5.4" height="5.4"/><circle class="cls-2" cx="405.27" cy="734.3" r="2.65"/><rect class="cls-1" x="557.96" y="1066.77" width="5.4" height="5.4"/><circle class="cls-2" cx="560.66" cy="1069.47" r="2.65"/><rect class="cls-1" x="461.71" y="945.36" width="5.4" height="5.4"/><circle class="cls-2" cx="464.41" cy="948.06" r="2.65"/><rect class="cls-1" x="587.23" y="1222.78" width="5.4" height="5.4"/><circle class="cls-2" cx="589.93" cy="1225.48" r="2.65"/><rect class="cls-1" x="344.87" y="910.04" width="5.4" height="5.4"/><circle class="cls-2" cx="347.57" cy="912.74" r="2.65"/><rect class="cls-1" x="432.09" y="1134.36" width="5.4" height="5.4"/><circle class="cls-2" cx="434.79" cy="1137.06" r="2.65"/><rect class="cls-1" x="280.86" y="969.09" width="5.4" height="5.4"/><circle class="cls-2" cx="283.56" cy="971.79" r="2.65"/><rect class="cls-1" x="391.79" y="1243.14" width="5.4" height="5.4"/><circle class="cls-2" cx="394.49" cy="1245.84" r="2.65"/><rect class="cls-1" x="273.51" y="1089.97" width="5.4" height="5.4"/><circle class="cls-2" cx="276.21" cy="1092.67" r="2.65"/><rect class="cls-1" x="398.84" y="1307.05" width="5.4" height="5.4"/><circle class="cls-2" cx="401.54" cy="1309.75" r="2.65"/><rect class="cls-1" x="162.62" y="1004.59" width="5.4" height="5.4"/><circle class="cls-2" cx="165.32" cy="1007.29" r="2.65"/><rect class="cls-1" x="27" y="979.3" width="5.4" height="5.4"/><circle class="cls-2" cx="29.7" cy="982" r="2.65"/><rect class="cls-1" x="96.23" y="1046.61" width="5.4" height="5.4"/><circle class="cls-2" cx="98.93" cy="1049.31" r="2.65"/><rect class="cls-1" x="1921.73" y="486.54" width="2.7" height="2.7"/><circle class="cls-3" cx="1923.08" cy="487.89" r="1.33"/><rect class="cls-1" x="1916.2" y="534.2" width="2.7" height="2.7"/><circle class="cls-3" cx="1917.55" cy="535.55" r="1.33"/><rect class="cls-1" x="1929.41" y="637.73" width="2.7" height="2.7"/><circle class="cls-3" cx="1930.76" cy="639.08" r="1.33"/><rect class="cls-1" x="1887.8" y="593.8" width="2.7" height="2.7"/><circle class="cls-3" cx="1889.15" cy="595.15" r="1.33"/><rect class="cls-1" x="1870.25" y="617.91" width="2.7" height="2.7"/><circle class="cls-3" cx="1871.6" cy="619.26" r="1.33"/><rect class="cls-1" x="1823.82" y="585.83" width="2.7" height="2.7"/><circle class="cls-3" cx="1825.17" cy="587.18" r="1.33"/><rect class="cls-1" x="1807.99" y="594.33" width="2.7" height="2.7"/><circle class="cls-3" cx="1809.34" cy="595.68" r="1.33"/><rect class="cls-1" x="1813.55" y="650.62" width="2.7" height="2.7"/><circle class="cls-3" cx="1814.9" cy="651.97" r="1.33"/><rect class="cls-1" x="1838.96" y="713.08" width="2.7" height="2.7"/><circle class="cls-3" cx="1840.31" cy="714.43" r="1.33"/><rect class="cls-1" x="1820.49" y="723.89" width="2.7" height="2.7"/><circle class="cls-3" cx="1821.84" cy="725.24" r="1.33"/><rect class="cls-1" x="1709.84" y="618.18" width="2.7" height="2.7"/><circle class="cls-3" cx="1711.19" cy="619.53" r="1.33"/><rect class="cls-1" x="1611.42" y="568.72" width="2.7" height="2.7"/><circle class="cls-3" cx="1612.77" cy="570.07" r="1.33"/><rect class="cls-1" x="1772.56" y="758.94" width="2.7" height="2.7"/><circle class="cls-3" cx="1773.91" cy="760.29" r="1.33"/><rect class="cls-1" x="1763.54" y="777.31" width="2.7" height="2.7"/><circle class="cls-3" cx="1764.89" cy="778.66" r="1.33"/><rect class="cls-1" x="1640.01" y="682.53" width="2.7" height="2.7"/><circle class="cls-3" cx="1641.36" cy="683.88" r="1.33"/><rect class="cls-1" x="1736.33" y="804.9" width="2.7" height="2.7"/><circle class="cls-3" cx="1737.68" cy="806.25" r="1.33"/><rect class="cls-1" x="1559.26" y="688.9" width="2.7" height="2.7"/><circle class="cls-3" cx="1560.61" cy="690.25" r="1.33"/><rect class="cls-1" x="1638.38" y="779.59" width="2.7" height="2.7"/><circle class="cls-3" cx="1639.73" cy="780.94" r="1.33"/><rect class="cls-1" x="1638.64" y="814.8" width="2.7" height="2.7"/><circle class="cls-3" cx="1639.99" cy="816.15" r="1.33"/><rect class="cls-1" x="1714.25" y="890.48" width="2.7" height="2.7"/><circle class="cls-3" cx="1715.6" cy="891.83" r="1.33"/><rect class="cls-1" x="1545.3" y="805.25" width="2.7" height="2.7"/><circle class="cls-3" cx="1546.65" cy="806.6" r="1.33"/><rect class="cls-1" x="1580.05" y="853.66" width="2.7" height="2.7"/><circle class="cls-3" cx="1581.4" cy="855.01" r="1.33"/><rect class="cls-1" x="1655.85" y="931.95" width="2.7" height="2.7"/><circle class="cls-3" cx="1657.2" cy="933.3" r="1.33"/><rect class="cls-1" x="1614.19" y="926.99" width="2.7" height="2.7"/><circle class="cls-3" cx="1615.54" cy="928.34" r="1.33"/><rect class="cls-1" x="1657.2" y="976.41" width="2.7" height="2.7"/><circle class="cls-3" cx="1658.55" cy="977.76" r="1.33"/><rect class="cls-1" x="1587.73" y="960.07" width="2.7" height="2.7"/><circle class="cls-3" cx="1589.08" cy="961.42" r="1.33"/><rect class="cls-1" x="1395.47" y="873.28" width="2.7" height="2.7"/><circle class="cls-3" cx="1396.82" cy="874.63" r="1.33"/><rect class="cls-1" x="1582.39" y="1003.26" width="2.7" height="2.7"/><circle class="cls-3" cx="1583.74" cy="1004.61" r="1.33"/><rect class="cls-1" x="1399.6" y="924.97" width="2.7" height="2.7"/><circle class="cls-3" cx="1400.95" cy="926.32" r="1.33"/><rect class="cls-1" x="1407.93" y="954.71" width="2.7" height="2.7"/><circle class="cls-3" cx="1409.28" cy="956.06" r="1.33"/><rect class="cls-1" x="1367.38" y="960.43" width="2.7" height="2.7"/><circle class="cls-3" cx="1368.73" cy="961.78" r="1.33"/><rect class="cls-1" x="1479.77" y="1048.1" width="2.7" height="2.7"/><circle class="cls-3" cx="1481.12" cy="1049.45" r="1.33"/><rect class="cls-1" x="1536.64" y="1103.39" width="2.7" height="2.7"/><circle class="cls-3" cx="1537.99" cy="1104.74" r="1.33"/><rect class="cls-1" x="1371.42" y="1032.07" width="2.7" height="2.7"/><circle class="cls-3" cx="1372.77" cy="1033.42" r="1.33"/><rect class="cls-1" x="1460.3" y="1108" width="2.7" height="2.7"/><circle class="cls-3" cx="1461.65" cy="1109.35" r="1.33"/><rect class="cls-1" x="1302.7" y="1044.24" width="2.7" height="2.7"/><circle class="cls-3" cx="1304.05" cy="1045.59" r="1.33"/><rect class="cls-1" x="1511.73" y="1194.36" width="2.7" height="2.7"/><circle class="cls-3" cx="1513.08" cy="1195.71" r="1.33"/><rect class="cls-1" x="1514.33" y="1217.07" width="2.7" height="2.7"/><circle class="cls-3" cx="1515.68" cy="1218.42" r="1.33"/><rect class="cls-1" x="1503.07" y="1245.76" width="2.7" height="2.7"/><circle class="cls-3" cx="1504.42" cy="1247.11" r="1.33"/><rect class="cls-1" x="1468.27" y="1248.06" width="2.7" height="2.7"/><circle class="cls-3" cx="1469.62" cy="1249.41" r="1.33"/><rect class="cls-1" x="1404.5" y="1220.94" width="2.7" height="2.7"/><circle class="cls-3" cx="1405.85" cy="1222.29" r="1.33"/><rect class="cls-1" x="1336.75" y="1190.03" width="2.7" height="2.7"/><circle class="cls-3" cx="1338.1" cy="1191.38" r="1.33"/><rect class="cls-1" x="1299.32" y="1143.66" width="2.7" height="2.7"/><circle class="cls-3" cx="1300.67" cy="1145.01" r="1.33"/><rect class="cls-1" x="1357.48" y="1256.22" width="2.7" height="2.7"/><circle class="cls-3" cx="1358.83" cy="1257.57" r="1.33"/><rect class="cls-1" x="1344.11" y="1290.21" width="2.7" height="2.7"/><circle class="cls-3" cx="1345.46" cy="1291.56" r="1.33"/><rect class="cls-1" x="1315.82" y="1230.94" width="2.7" height="2.7"/><circle class="cls-3" cx="1317.17" cy="1232.29" r="1.33"/><rect class="cls-1" x="1291.16" y="1168.81" width="2.7" height="2.7"/><circle class="cls-3" cx="1292.51" cy="1170.16" r="1.33"/><rect class="cls-1" x="1282.22" y="1263.4" width="2.7" height="2.7"/><circle class="cls-3" cx="1283.57" cy="1264.75" r="1.33"/><rect class="cls-1" x="1323.69" y="1125.64" width="2.7" height="2.7"/><circle class="cls-3" cx="1325.04" cy="1126.99" r="1.33"/><rect class="cls-1" x="1212.91" y="1324.74" width="2.7" height="2.7"/><circle class="cls-3" cx="1214.26" cy="1326.09" r="1.33"/><rect class="cls-1" x="1255.11" y="1200.92" width="2.7" height="2.7"/><circle class="cls-3" cx="1256.46" cy="1202.27" r="1.33"/><rect class="cls-1" x="1294.03" y="1106.21" width="2.7" height="2.7"/><circle class="cls-3" cx="1295.38" cy="1107.56" r="1.33"/><rect class="cls-1" x="1162.52" y="1259.36" width="2.7" height="2.7"/><circle class="cls-3" cx="1163.87" cy="1260.71" r="1.33"/><rect class="cls-1" x="1278.19" y="1097.74" width="2.7" height="2.7"/><circle class="cls-3" cx="1279.54" cy="1099.09" r="1.33"/><rect class="cls-1" x="1198.02" y="1161.04" width="2.7" height="2.7"/><circle class="cls-3" cx="1199.37" cy="1162.39" r="1.33"/><rect class="cls-1" x="1307.88" y="1061" width="2.7" height="2.7"/><circle class="cls-3" cx="1309.23" cy="1062.35" r="1.33"/><rect class="cls-1" x="1267.02" y="1063.15" width="2.7" height="2.7"/><circle class="cls-3" cx="1268.37" cy="1064.5" r="1.33"/><rect class="cls-1" x="1275.73" y="1031.49" width="2.7" height="2.7"/><circle class="cls-3" cx="1277.08" cy="1032.84" r="1.33"/><rect class="cls-1" x="1186.04" y="1075.96" width="2.7" height="2.7"/><circle class="cls-3" cx="1187.39" cy="1077.31" r="1.33"/><rect class="cls-1" x="1027.86" y="1149.8" width="2.7" height="2.7"/><circle class="cls-3" cx="1029.21" cy="1151.15" r="1.33"/><rect class="cls-1" x="1171.13" y="1033.82" width="2.7" height="2.7"/><circle class="cls-3" cx="1172.48" cy="1035.17" r="1.33"/><rect class="cls-1" x="1045.28" y="1088.9" width="2.7" height="2.7"/><circle class="cls-3" cx="1046.63" cy="1090.25" r="1.33"/><rect class="cls-1" x="1059" y="1057.19" width="2.7" height="2.7"/><circle class="cls-3" cx="1060.35" cy="1058.54" r="1.33"/><rect class="cls-1" x="1084.04" y="1021.73" width="2.7" height="2.7"/><circle class="cls-3" cx="1085.39" cy="1023.08" r="1.33"/><rect class="cls-1" x="1186.73" y="938.64" width="2.7" height="2.7"/><circle class="cls-3" cx="1188.08" cy="939.99" r="1.33"/><rect class="cls-1" x="1028.03" y="1003.28" width="2.7" height="2.7"/><circle class="cls-3" cx="1029.38" cy="1004.63" r="1.33"/><rect class="cls-1" x="965.2" y="1013.65" width="2.7" height="2.7"/><circle class="cls-3" cx="966.55" cy="1015" r="1.33"/><rect class="cls-1" x="1012.09" y="957.41" width="2.7" height="2.7"/><circle class="cls-3" cx="1013.44" cy="958.76" r="1.33"/><rect class="cls-1" x="1007.37" y="936.71" width="2.7" height="2.7"/><circle class="cls-3" cx="1008.72" cy="938.06" r="1.33"/><rect class="cls-1" x="1036.76" y="893.49" width="2.7" height="2.7"/><circle class="cls-3" cx="1038.11" cy="894.84" r="1.33"/><rect class="cls-1" x="948.63" y="931" width="2.7" height="2.7"/><circle class="cls-3" cx="949.98" cy="932.35" r="1.33"/><rect class="cls-1" x="920.88" y="930.68" width="2.7" height="2.7"/><circle class="cls-3" cx="922.23" cy="932.03" r="1.33"/><rect class="cls-1" x="943.92" y="883.16" width="2.7" height="2.7"/><circle class="cls-3" cx="945.27" cy="884.51" r="1.33"/><rect class="cls-1" x="1054.13" y="762.69" width="2.7" height="2.7"/><circle class="cls-3" cx="1055.48" cy="764.04" r="1.33"/><rect class="cls-1" x="1047.96" y="696.28" width="2.7" height="2.7"/><circle class="cls-3" cx="1049.31" cy="697.63" r="1.33"/><rect class="cls-1" x="974.26" y="748.33" width="2.7" height="2.7"/><circle class="cls-3" cx="975.61" cy="749.68" r="1.33"/><rect class="cls-1" x="943.72" y="749.31" width="2.7" height="2.7"/><circle class="cls-3" cx="945.07" cy="750.66" r="1.33"/><rect class="cls-1" x="922.9" y="705.1" width="2.7" height="2.7"/><circle class="cls-3" cx="924.25" cy="706.45" r="1.33"/><rect class="cls-1" x="878.02" y="743.42" width="2.7" height="2.7"/><circle class="cls-3" cx="879.37" cy="744.77" r="1.33"/><rect class="cls-1" x="882.44" y="624.04" width="2.7" height="2.7"/><circle class="cls-3" cx="883.79" cy="625.39" r="1.33"/><rect class="cls-1" x="802.13" y="719.69" width="2.7" height="2.7"/><circle class="cls-3" cx="803.48" cy="721.04" r="1.33"/><rect class="cls-1" x="784.12" y="834.89" width="2.7" height="2.7"/><circle class="cls-3" cx="785.47" cy="836.24" r="1.33"/><rect class="cls-1" x="741.17" y="745.84" width="2.7" height="2.7"/><circle class="cls-3" cx="742.52" cy="747.19" r="1.33"/><rect class="cls-1" x="786.82" y="847.92" width="2.7" height="2.7"/><circle class="cls-3" cx="788.17" cy="849.27" r="1.33"/><rect class="cls-1" x="784.61" y="880.04" width="2.7" height="2.7"/><circle class="cls-3" cx="785.96" cy="881.39" r="1.33"/><rect class="cls-1" x="667.49" y="805.7" width="2.7" height="2.7"/><circle class="cls-3" cx="668.84" cy="807.05" r="1.33"/><rect class="cls-1" x="572.63" y="786.33" width="2.7" height="2.7"/><circle class="cls-3" cx="573.98" cy="787.68" r="1.33"/><rect class="cls-1" x="632" y="846.88" width="2.7" height="2.7"/><circle class="cls-3" cx="633.35" cy="848.23" r="1.33"/><rect class="cls-1" x="714.97" y="919.12" width="2.7" height="2.7"/><circle class="cls-3" cx="716.32" cy="920.47" r="1.33"/><rect class="cls-1" x="507.83" y="827" width="2.7" height="2.7"/><circle class="cls-3" cx="509.18" cy="828.35" r="1.33"/><rect class="cls-1" x="604.83" y="903.91" width="2.7" height="2.7"/><circle class="cls-3" cx="606.18" cy="905.26" r="1.33"/><rect class="cls-1" x="568.01" y="920.79" width="2.7" height="2.7"/><circle class="cls-3" cx="569.36" cy="922.14" r="1.33"/><rect class="cls-1" x="482.32" y="906.37" width="2.7" height="2.7"/><circle class="cls-3" cx="483.67" cy="907.72" r="1.33"/><rect class="cls-1" x="518.64" y="944.59" width="2.7" height="2.7"/><circle class="cls-3" cx="519.99" cy="945.94" r="1.33"/><rect class="cls-1" x="672.79" y="1034.4" width="2.7" height="2.7"/><circle class="cls-3" cx="674.14" cy="1035.75" r="1.33"/><rect class="cls-1" x="622.83" y="1036.71" width="2.7" height="2.7"/><circle class="cls-3" cx="624.18" cy="1038.06" r="1.33"/><rect class="cls-1" x="614.55" y="1056.89" width="2.7" height="2.7"/><circle class="cls-3" cx="615.9" cy="1058.24" r="1.33"/><rect class="cls-1" x="512.29" y="1046.5" width="2.7" height="2.7"/><circle class="cls-3" cx="513.64" cy="1047.85" r="1.33"/><rect class="cls-1" x="515.66" y="1070.46" width="2.7" height="2.7"/><circle class="cls-3" cx="517.01" cy="1071.81" r="1.33"/><rect class="cls-1" x="413.62" y="1052.93" width="2.7" height="2.7"/><circle class="cls-3" cx="414.97" cy="1054.28" r="1.33"/><rect class="cls-1" x="478.62" y="1100.11" width="2.7" height="2.7"/><circle class="cls-3" cx="479.97" cy="1101.46" r="1.33"/><rect class="cls-1" x="479.84" y="1124.69" width="2.7" height="2.7"/><circle class="cls-3" cx="481.19" cy="1126.04" r="1.33"/><rect class="cls-1" x="613.68" y="1188.17" width="2.7" height="2.7"/><circle class="cls-3" cx="615.03" cy="1189.52" r="1.33"/><rect class="cls-1" x="566" y="1192.64" width="2.7" height="2.7"/><circle class="cls-3" cx="567.35" cy="1193.99" r="1.33"/><rect class="cls-1" x="565.66" y="1216.85" width="2.7" height="2.7"/><circle class="cls-3" cx="567.01" cy="1218.2" r="1.33"/><rect class="cls-1" x="340.58" y="1164.49" width="2.7" height="2.7"/><circle class="cls-3" cx="341.93" cy="1165.84" r="1.33"/><rect class="cls-1" x="386.02" y="1203.3" width="2.7" height="2.7"/><circle class="cls-3" cx="387.37" cy="1204.65" r="1.33"/><rect class="cls-1" x="581.45" y="1285.87" width="2.7" height="2.7"/><circle class="cls-3" cx="582.8" cy="1287.22" r="1.33"/><rect class="cls-1" x="359.43" y="1242.29" width="2.7" height="2.7"/><circle class="cls-3" cx="360.78" cy="1243.64" r="1.33"/><rect class="cls-1" x="534.9" y="1320.33" width="2.7" height="2.7"/><circle class="cls-3" cx="536.25" cy="1321.68" r="1.33"/><rect class="cls-1" x="356.1" y="1295.57" width="2.7" height="2.7"/><circle class="cls-3" cx="357.45" cy="1296.92" r="1.33"/><rect class="cls-1" x="466.64" y="1348.57" width="2.7" height="2.7"/><circle class="cls-3" cx="467.99" cy="1349.92" r="1.33"/><rect class="cls-1" x="451.51" y="1374.2" width="2.7" height="2.7"/><circle class="cls-3" cx="452.86" cy="1375.55" r="1.33"/><rect class="cls-1" x="567.83" y="1417.69" width="2.7" height="2.7"/><circle class="cls-3" cx="569.18" cy="1419.04" r="1.33"/><rect class="cls-1" x="368.04" y="1406.44" width="2.7" height="2.7"/><circle class="cls-3" cx="369.39" cy="1407.79" r="1.33"/><rect class="cls-1" x="375.31" y="1447.85" width="2.7" height="2.7"/><circle class="cls-3" cx="376.66" cy="1449.2" r="1.33"/><rect class="cls-1" x="476.78" y="1475.36" width="2.7" height="2.7"/><circle class="cls-3" cx="478.13" cy="1476.71" r="1.33"/><rect class="cls-1" x="514.75" y="1497.68" width="2.7" height="2.7"/><circle class="cls-3" cx="516.1" cy="1499.03" r="1.33"/><rect class="cls-1" x="2533.49" y="1274.42" width="5.4" height="5.4"/><circle class="cls-2" cx="2536.19" cy="1277.12" r="2.65"/><rect class="cls-1" x="2500.53" y="1171.61" width="5.4" height="5.4"/><circle class="cls-2" cx="2503.23" cy="1174.31" r="2.65"/><rect class="cls-1" x="2459.55" y="1031.71" width="5.4" height="5.4"/><circle class="cls-2" cx="2462.25" cy="1034.41" r="2.65"/><rect class="cls-1" x="2406.08" y="915" width="5.4" height="5.4"/><circle class="cls-2" cx="2408.78" cy="917.7" r="2.65"/><rect class="cls-1" x="2367.8" y="1024.61" width="5.4" height="5.4"/><circle class="cls-2" cx="2370.5" cy="1027.31" r="2.65"/><rect class="cls-1" x="2339.28" y="1128.94" width="5.4" height="5.4"/><circle class="cls-2" cx="2341.98" cy="1131.64" r="2.65"/><rect class="cls-1" x="2347.65" y="1305.24" width="5.4" height="5.4"/><circle class="cls-2" cx="2350.35" cy="1307.94" r="2.65"/><rect class="cls-1" x="2270.88" y="977.54" width="5.4" height="5.4"/><circle class="cls-2" cx="2273.58" cy="980.24" r="2.65"/><rect class="cls-1" x="2296.15" y="1224.47" width="5.4" height="5.4"/><circle class="cls-2" cx="2298.85" cy="1227.17" r="2.65"/><rect class="cls-1" x="2206.42" y="958.48" width="5.4" height="5.4"/><circle class="cls-2" cx="2209.12" cy="961.18" r="2.65"/><rect class="cls-1" x="2209.64" y="1034.65" width="5.4" height="5.4"/><circle class="cls-2" cx="2212.34" cy="1037.35" r="2.65"/><rect class="cls-1" x="2187.36" y="954.87" width="5.4" height="5.4"/><circle class="cls-2" cx="2190.06" cy="957.57" r="2.65"/><rect class="cls-1" x="2182.6" y="1203.44" width="5.4" height="5.4"/><circle class="cls-2" cx="2185.3" cy="1206.14" r="2.65"/><rect class="cls-1" x="2125.02" y="1079.44" width="5.4" height="5.4"/><circle class="cls-2" cx="2127.72" cy="1082.14" r="2.65"/><rect class="cls-1" x="2082.66" y="1104.18" width="5.4" height="5.4"/><circle class="cls-2" cx="2085.36" cy="1106.88" r="2.65"/><rect class="cls-1" x="2129.7" y="1330.39" width="5.4" height="5.4"/><circle class="cls-2" cx="2132.4" cy="1333.09" r="2.65"/><rect class="cls-1" x="2029.05" y="999.62" width="5.4" height="5.4"/><circle class="cls-2" cx="2031.75" cy="1002.32" r="2.65"/><rect class="cls-1" x="2038.8" y="1154.02" width="5.4" height="5.4"/><circle class="cls-2" cx="2041.5" cy="1156.72" r="2.65"/><rect class="cls-1" x="2061.03" y="1366.2" width="5.4" height="5.4"/><circle class="cls-2" cx="2063.73" cy="1368.9" r="2.65"/><rect class="cls-1" x="1872.92" y="956.65" width="5.4" height="5.4"/><circle class="cls-2" cx="1875.62" cy="959.35" r="2.65"/><rect class="cls-1" x="1798.34" y="918.23" width="5.4" height="5.4"/><circle class="cls-2" cx="1801.04" cy="920.93" r="2.65"/><rect class="cls-1" x="1948.51" y="1378.07" width="5.4" height="5.4"/><circle class="cls-2" cx="1951.21" cy="1380.77" r="2.65"/><rect class="cls-1" x="1798.4" y="1090.75" width="5.4" height="5.4"/><circle class="cls-2" cx="1801.1" cy="1093.45" r="2.65"/><rect class="cls-1" x="1742.2" y="1010.15" width="5.4" height="5.4"/><circle class="cls-2" cx="1744.9" cy="1012.85" r="2.65"/><rect class="cls-1" x="1755.57" y="1124.96" width="5.4" height="5.4"/><circle class="cls-2" cx="1758.27" cy="1127.66" r="2.65"/><rect class="cls-1" x="1805.41" y="1320.97" width="5.4" height="5.4"/><circle class="cls-2" cx="1808.11" cy="1323.67" r="2.65"/><rect class="cls-1" x="1827.93" y="1441.89" width="5.4" height="5.4"/><circle class="cls-2" cx="1830.63" cy="1444.59" r="2.65"/><rect class="cls-1" x="1621.16" y="1121.01" width="5.4" height="5.4"/><circle class="cls-2" cx="1623.86" cy="1123.71" r="2.65"/><rect class="cls-1" x="1570.51" y="1090.52" width="5.4" height="5.4"/><circle class="cls-2" cx="1573.21" cy="1093.22" r="2.65"/><rect class="cls-1" x="1532.16" y="1110.79" width="5.4" height="5.4"/><circle class="cls-2" cx="1534.86" cy="1113.49" r="2.65"/><rect class="cls-1" x="1511.91" y="1142.5" width="5.4" height="5.4"/><circle class="cls-2" cx="1514.61" cy="1145.2" r="2.65"/><rect class="cls-1" x="1463.74" y="1131.98" width="5.4" height="5.4"/><circle class="cls-2" cx="1466.44" cy="1134.68" r="2.65"/><rect class="cls-1" x="1435.66" y="1116.6" width="5.4" height="5.4"/><circle class="cls-2" cx="1438.36" cy="1119.3" r="2.65"/><rect class="cls-1" x="1394.64" y="1131.62" width="5.4" height="5.4"/><circle class="cls-2" cx="1397.34" cy="1134.32" r="2.65"/><rect class="cls-1" x="1442.76" y="1325.17" width="5.4" height="5.4"/><circle class="cls-2" cx="1445.46" cy="1327.87" r="2.65"/><rect class="cls-1" x="1415.02" y="1294.37" width="5.4" height="5.4"/><circle class="cls-2" cx="1417.72" cy="1297.07" r="2.65"/><rect class="cls-1" x="1449.87" y="1406.35" width="5.4" height="5.4"/><circle class="cls-2" cx="1452.57" cy="1409.05" r="2.65"/><rect class="cls-1" x="1504.68" y="1536.75" width="5.4" height="5.4"/><circle class="cls-2" cx="1507.38" cy="1539.45" r="2.65"/><rect class="cls-1" x="1473.48" y="1535.86" width="5.4" height="5.4"/><circle class="cls-2" cx="1476.18" cy="1538.56" r="2.65"/><rect class="cls-1" x="1452.66" y="1582.99" width="5.4" height="5.4"/><circle class="cls-2" cx="1455.36" cy="1585.69" r="2.65"/><rect class="cls-1" x="1334.27" y="1471.64" width="5.4" height="5.4"/><circle class="cls-2" cx="1336.97" cy="1474.34" r="2.65"/><rect class="cls-1" x="1198.57" y="1260.6" width="5.4" height="5.4"/><circle class="cls-2" cx="1201.27" cy="1263.3" r="2.65"/><rect class="cls-1" x="1353.96" y="1595.77" width="5.4" height="5.4"/><circle class="cls-2" cx="1356.66" cy="1598.47" r="2.65"/><rect class="cls-1" x="1257.71" y="1474.36" width="5.4" height="5.4"/><circle class="cls-2" cx="1260.41" cy="1477.06" r="2.65"/><rect class="cls-1" x="1383.23" y="1751.78" width="5.4" height="5.4"/><circle class="cls-2" cx="1385.93" cy="1754.48" r="2.65"/><rect class="cls-1" x="1140.87" y="1439.04" width="5.4" height="5.4"/><circle class="cls-2" cx="1143.57" cy="1441.74" r="2.65"/><rect class="cls-1" x="1228.09" y="1663.36" width="5.4" height="5.4"/><circle class="cls-2" cx="1230.79" cy="1666.06" r="2.65"/><rect class="cls-1" x="1076.86" y="1498.09" width="5.4" height="5.4"/><circle class="cls-2" cx="1079.56" cy="1500.79" r="2.65"/><rect class="cls-1" x="1187.79" y="1772.14" width="5.4" height="5.4"/><circle class="cls-2" cx="1190.49" cy="1774.84" r="2.65"/><rect class="cls-1" x="1069.51" y="1618.97" width="5.4" height="5.4"/><circle class="cls-2" cx="1072.21" cy="1621.67" r="2.65"/><rect class="cls-1" x="1194.84" y="1836.05" width="5.4" height="5.4"/><circle class="cls-2" cx="1197.54" cy="1838.75" r="2.65"/><rect class="cls-1" x="958.62" y="1533.59" width="5.4" height="5.4"/><circle class="cls-2" cx="961.32" cy="1536.29" r="2.65"/><rect class="cls-1" x="823" y="1508.3" width="5.4" height="5.4"/><circle class="cls-2" cx="825.7" cy="1511" r="2.65"/><rect class="cls-1" x="892.23" y="1575.61" width="5.4" height="5.4"/><circle class="cls-2" cx="894.93" cy="1578.31" r="2.65"/><rect class="cls-1" x="2244.49" y="1167.42" width="5.4" height="5.4"/><circle class="cls-2" cx="2247.19" cy="1170.12" r="2.65"/><rect class="cls-1" x="2211.53" y="1064.61" width="5.4" height="5.4"/><circle class="cls-2" cx="2214.23" cy="1067.31" r="2.65"/><rect class="cls-1" x="2170.55" y="924.71" width="5.4" height="5.4"/><circle class="cls-2" cx="2173.25" cy="927.41" r="2.65"/><rect class="cls-1" x="2117.08" y="808" width="5.4" height="5.4"/><circle class="cls-2" cx="2119.78" cy="810.7" r="2.65"/><rect class="cls-1" x="2078.8" y="917.61" width="5.4" height="5.4"/><circle class="cls-2" cx="2081.5" cy="920.31" r="2.65"/><rect class="cls-1" x="2050.28" y="1021.94" width="5.4" height="5.4"/><circle class="cls-2" cx="2052.98" cy="1024.64" r="2.65"/><rect class="cls-1" x="2058.65" y="1198.24" width="5.4" height="5.4"/><circle class="cls-2" cx="2061.35" cy="1200.94" r="2.65"/><rect class="cls-1" x="1981.88" y="870.54" width="5.4" height="5.4"/><circle class="cls-2" cx="1984.58" cy="873.24" r="2.65"/><rect class="cls-1" x="2007.15" y="1117.47" width="5.4" height="5.4"/><circle class="cls-2" cx="2009.85" cy="1120.17" r="2.65"/><rect class="cls-1" x="1917.42" y="851.48" width="5.4" height="5.4"/><circle class="cls-2" cx="1920.12" cy="854.18" r="2.65"/><rect class="cls-1" x="1920.64" y="927.65" width="5.4" height="5.4"/><circle class="cls-2" cx="1923.34" cy="930.35" r="2.65"/><rect class="cls-1" x="1898.36" y="847.87" width="5.4" height="5.4"/><circle class="cls-2" cx="1901.06" cy="850.57" r="2.65"/><rect class="cls-1" x="1893.6" y="1096.44" width="5.4" height="5.4"/><circle class="cls-2" cx="1896.3" cy="1099.14" r="2.65"/><rect class="cls-1" x="1836.02" y="972.44" width="5.4" height="5.4"/><circle class="cls-2" cx="1838.72" cy="975.14" r="2.65"/><rect class="cls-1" x="1793.66" y="997.18" width="5.4" height="5.4"/><circle class="cls-2" cx="1796.36" cy="999.88" r="2.65"/><rect class="cls-1" x="1840.7" y="1223.39" width="5.4" height="5.4"/><circle class="cls-2" cx="1843.4" cy="1226.09" r="2.65"/><rect class="cls-1" x="1740.05" y="892.62" width="5.4" height="5.4"/><circle class="cls-2" cx="1742.75" cy="895.32" r="2.65"/><rect class="cls-1" x="1749.8" y="1047.02" width="5.4" height="5.4"/><circle class="cls-2" cx="1752.5" cy="1049.72" r="2.65"/><rect class="cls-1" x="1772.03" y="1259.2" width="5.4" height="5.4"/><circle class="cls-2" cx="1774.73" cy="1261.9" r="2.65"/><rect class="cls-1" x="1583.92" y="849.65" width="5.4" height="5.4"/><circle class="cls-2" cx="1586.62" cy="852.35" r="2.65"/><rect class="cls-1" x="1509.34" y="811.23" width="5.4" height="5.4"/><circle class="cls-2" cx="1512.04" cy="813.93" r="2.65"/><rect class="cls-1" x="1659.51" y="1271.07" width="5.4" height="5.4"/><circle class="cls-2" cx="1662.21" cy="1273.77" r="2.65"/><rect class="cls-1" x="1509.4" y="983.75" width="5.4" height="5.4"/><circle class="cls-2" cx="1512.1" cy="986.45" r="2.65"/><rect class="cls-1" x="1453.2" y="903.15" width="5.4" height="5.4"/><circle class="cls-2" cx="1455.9" cy="905.85" r="2.65"/><rect class="cls-1" x="1466.57" y="1017.96" width="5.4" height="5.4"/><circle class="cls-2" cx="1469.27" cy="1020.66" r="2.65"/><rect class="cls-1" x="1516.41" y="1213.97" width="5.4" height="5.4"/><circle class="cls-2" cx="1519.11" cy="1216.67" r="2.65"/><rect class="cls-1" x="1538.93" y="1334.89" width="5.4" height="5.4"/><circle class="cls-2" cx="1541.63" cy="1337.59" r="2.65"/><rect class="cls-1" x="1332.16" y="1014.01" width="5.4" height="5.4"/><circle class="cls-2" cx="1334.86" cy="1016.71" r="2.65"/><rect class="cls-1" x="1281.51" y="983.52" width="5.4" height="5.4"/><circle class="cls-2" cx="1284.21" cy="986.22" r="2.65"/><rect class="cls-1" x="1243.16" y="1003.79" width="5.4" height="5.4"/><circle class="cls-2" cx="1245.86" cy="1006.49" r="2.65"/><rect class="cls-1" x="1222.91" y="1035.5" width="5.4" height="5.4"/><circle class="cls-2" cx="1225.61" cy="1038.2" r="2.65"/><rect class="cls-1" x="1174.74" y="1024.98" width="5.4" height="5.4"/><circle class="cls-2" cx="1177.44" cy="1027.68" r="2.65"/><rect class="cls-1" x="1146.66" y="1009.6" width="5.4" height="5.4"/><circle class="cls-2" cx="1149.36" cy="1012.3" r="2.65"/><rect class="cls-1" x="1105.64" y="1024.62" width="5.4" height="5.4"/><circle class="cls-2" cx="1108.34" cy="1027.32" r="2.65"/><rect class="cls-1" x="1153.76" y="1218.17" width="5.4" height="5.4"/><circle class="cls-2" cx="1156.46" cy="1220.87" r="2.65"/><rect class="cls-1" x="1126.02" y="1187.37" width="5.4" height="5.4"/><circle class="cls-2" cx="1128.72" cy="1190.07" r="2.65"/><rect class="cls-1" x="1160.87" y="1299.35" width="5.4" height="5.4"/><circle class="cls-2" cx="1163.57" cy="1302.05" r="2.65"/><rect class="cls-1" x="1215.68" y="1429.75" width="5.4" height="5.4"/><circle class="cls-2" cx="1218.38" cy="1432.45" r="2.65"/><rect class="cls-1" x="1184.48" y="1428.86" width="5.4" height="5.4"/><circle class="cls-2" cx="1187.18" cy="1431.56" r="2.65"/><rect class="cls-1" x="1163.66" y="1475.99" width="5.4" height="5.4"/><circle class="cls-2" cx="1166.36" cy="1478.69" r="2.65"/><rect class="cls-1" x="1045.27" y="1364.64" width="5.4" height="5.4"/><circle class="cls-2" cx="1047.97" cy="1367.34" r="2.65"/><rect class="cls-1" x="909.57" y="1153.6" width="5.4" height="5.4"/><circle class="cls-2" cx="912.27" cy="1156.3" r="2.65"/><rect class="cls-1" x="1064.96" y="1488.77" width="5.4" height="5.4"/><circle class="cls-2" cx="1067.66" cy="1491.47" r="2.65"/><rect class="cls-1" x="968.71" y="1367.36" width="5.4" height="5.4"/><circle class="cls-2" cx="971.41" cy="1370.06" r="2.65"/><rect class="cls-1" x="1094.23" y="1644.78" width="5.4" height="5.4"/><circle class="cls-2" cx="1096.93" cy="1647.48" r="2.65"/><rect class="cls-1" x="851.87" y="1332.04" width="5.4" height="5.4"/><circle class="cls-2" cx="854.57" cy="1334.74" r="2.65"/><rect class="cls-1" x="939.09" y="1556.36" width="5.4" height="5.4"/><circle class="cls-2" cx="941.79" cy="1559.06" r="2.65"/><rect class="cls-1" x="787.86" y="1391.09" width="5.4" height="5.4"/><circle class="cls-2" cx="790.56" cy="1393.79" r="2.65"/><rect class="cls-1" x="898.79" y="1665.14" width="5.4" height="5.4"/><circle class="cls-2" cx="901.49" cy="1667.84" r="2.65"/><rect class="cls-1" x="780.51" y="1511.97" width="5.4" height="5.4"/><circle class="cls-2" cx="783.21" cy="1514.67" r="2.65"/><rect class="cls-1" x="905.84" y="1729.05" width="5.4" height="5.4"/><circle class="cls-2" cx="908.54" cy="1731.75" r="2.65"/><rect class="cls-1" x="669.62" y="1426.59" width="5.4" height="5.4"/><circle class="cls-2" cx="672.32" cy="1429.29" r="2.65"/><rect class="cls-1" x="534" y="1401.3" width="5.4" height="5.4"/><circle class="cls-2" cx="536.7" cy="1404" r="2.65"/><rect class="cls-1" x="603.23" y="1468.61" width="5.4" height="5.4"/><circle class="cls-2" cx="605.93" cy="1471.31" r="2.65"/><rect class="cls-1" x="1710.49" y="359.42" width="5.4" height="5.4"/><circle class="cls-2" cx="1713.19" cy="362.12" r="2.65"/><rect class="cls-1" x="1677.53" y="256.61" width="5.4" height="5.4"/><circle class="cls-2" cx="1680.23" cy="259.31" r="2.65"/><rect class="cls-1" x="1636.55" y="116.71" width="5.4" height="5.4"/><circle class="cls-2" cx="1639.25" cy="119.41" r="2.65"/><rect class="cls-1" x="1583.08" width="5.4" height="5.4"/><circle class="cls-2" cx="1585.78" cy="2.7" r="2.65"/><rect class="cls-1" x="1544.8" y="109.61" width="5.4" height="5.4"/><circle class="cls-2" cx="1547.5" cy="112.31" r="2.65"/><rect class="cls-1" x="1516.28" y="213.94" width="5.4" height="5.4"/><circle class="cls-2" cx="1518.98" cy="216.64" r="2.65"/><rect class="cls-1" x="1524.65" y="390.24" width="5.4" height="5.4"/><circle class="cls-2" cx="1527.35" cy="392.94" r="2.65"/><rect class="cls-1" x="1447.88" y="62.54" width="5.4" height="5.4"/><circle class="cls-2" cx="1450.58" cy="65.24" r="2.65"/><rect class="cls-1" x="1473.15" y="309.47" width="5.4" height="5.4"/><circle class="cls-2" cx="1475.85" cy="312.17" r="2.65"/><rect class="cls-1" x="1383.42" y="43.48" width="5.4" height="5.4"/><circle class="cls-2" cx="1386.12" cy="46.18" r="2.65"/><rect class="cls-1" x="1386.64" y="119.65" width="5.4" height="5.4"/><circle class="cls-2" cx="1389.34" cy="122.35" r="2.65"/><rect class="cls-1" x="1364.36" y="39.87" width="5.4" height="5.4"/><circle class="cls-2" cx="1367.06" cy="42.57" r="2.65"/><rect class="cls-1" x="1359.6" y="288.44" width="5.4" height="5.4"/><circle class="cls-2" cx="1362.3" cy="291.14" r="2.65"/><rect class="cls-1" x="1302.02" y="164.44" width="5.4" height="5.4"/><circle class="cls-2" cx="1304.72" cy="167.14" r="2.65"/><rect class="cls-1" x="1259.66" y="189.18" width="5.4" height="5.4"/><circle class="cls-2" cx="1262.36" cy="191.88" r="2.65"/><rect class="cls-1" x="1306.7" y="415.39" width="5.4" height="5.4"/><circle class="cls-2" cx="1309.4" cy="418.09" r="2.65"/><rect class="cls-1" x="1206.05" y="84.62" width="5.4" height="5.4"/><circle class="cls-2" cx="1208.75" cy="87.32" r="2.65"/><rect class="cls-1" x="1215.8" y="239.02" width="5.4" height="5.4"/><circle class="cls-2" cx="1218.5" cy="241.72" r="2.65"/><rect class="cls-1" x="1238.03" y="451.2" width="5.4" height="5.4"/><circle class="cls-2" cx="1240.73" cy="453.9" r="2.65"/><rect class="cls-1" x="1049.92" y="41.65" width="5.4" height="5.4"/><circle class="cls-2" cx="1052.62" cy="44.35" r="2.65"/><rect class="cls-1" x="975.34" y="3.23" width="5.4" height="5.4"/><circle class="cls-2" cx="978.04" cy="5.93" r="2.65"/><rect class="cls-1" x="1125.51" y="463.07" width="5.4" height="5.4"/><circle class="cls-2" cx="1128.21" cy="465.77" r="2.65"/><rect class="cls-1" x="975.4" y="175.75" width="5.4" height="5.4"/><circle class="cls-2" cx="978.1" cy="178.45" r="2.65"/><rect class="cls-1" x="919.2" y="95.15" width="5.4" height="5.4"/><circle class="cls-2" cx="921.9" cy="97.85" r="2.65"/><rect class="cls-1" x="932.57" y="209.96" width="5.4" height="5.4"/><circle class="cls-2" cx="935.27" cy="212.66" r="2.65"/><rect class="cls-1" x="982.41" y="405.97" width="5.4" height="5.4"/><circle class="cls-2" cx="985.11" cy="408.67" r="2.65"/><rect class="cls-1" x="1004.93" y="526.89" width="5.4" height="5.4"/><circle class="cls-2" cx="1007.63" cy="529.59" r="2.65"/><rect class="cls-1" x="798.16" y="206.01" width="5.4" height="5.4"/><circle class="cls-2" cx="800.86" cy="208.71" r="2.65"/><rect class="cls-1" x="747.51" y="175.52" width="5.4" height="5.4"/><circle class="cls-2" cx="750.21" cy="178.22" r="2.65"/><rect class="cls-1" x="709.16" y="195.79" width="5.4" height="5.4"/><circle class="cls-2" cx="711.86" cy="198.49" r="2.65"/><rect class="cls-1" x="688.91" y="227.5" width="5.4" height="5.4"/><circle class="cls-2" cx="691.61" cy="230.2" r="2.65"/><rect class="cls-1" x="640.74" y="216.98" width="5.4" height="5.4"/><circle class="cls-2" cx="643.44" cy="219.68" r="2.65"/><rect class="cls-1" x="612.66" y="201.6" width="5.4" height="5.4"/><circle class="cls-2" cx="615.36" cy="204.3" r="2.65"/><rect class="cls-1" x="571.64" y="216.62" width="5.4" height="5.4"/><circle class="cls-2" cx="574.34" cy="219.32" r="2.65"/><rect class="cls-1" x="619.76" y="410.17" width="5.4" height="5.4"/><circle class="cls-2" cx="622.46" cy="412.87" r="2.65"/><rect class="cls-1" x="592.02" y="379.37" width="5.4" height="5.4"/><circle class="cls-2" cx="594.72" cy="382.07" r="2.65"/><rect class="cls-1" x="626.87" y="491.35" width="5.4" height="5.4"/><circle class="cls-2" cx="629.57" cy="494.05" r="2.65"/><rect class="cls-1" x="681.68" y="621.75" width="5.4" height="5.4"/><circle class="cls-2" cx="684.38" cy="624.45" r="2.65"/><rect class="cls-1" x="650.48" y="620.86" width="5.4" height="5.4"/><circle class="cls-2" cx="653.18" cy="623.56" r="2.65"/><rect class="cls-1" x="629.66" y="667.99" width="5.4" height="5.4"/><circle class="cls-2" cx="632.36" cy="670.69" r="2.65"/><rect class="cls-1" x="511.27" y="556.64" width="5.4" height="5.4"/><circle class="cls-2" cx="513.97" cy="559.34" r="2.65"/><rect class="cls-1" x="375.57" y="345.6" width="5.4" height="5.4"/><circle class="cls-2" cx="378.27" cy="348.3" r="2.65"/><rect class="cls-1" x="530.96" y="680.77" width="5.4" height="5.4"/><circle class="cls-2" cx="533.66" cy="683.47" r="2.65"/><rect class="cls-1" x="434.71" y="559.36" width="5.4" height="5.4"/><circle class="cls-2" cx="437.41" cy="562.06" r="2.65"/><rect class="cls-1" x="560.23" y="836.78" width="5.4" height="5.4"/><circle class="cls-2" cx="562.93" cy="839.48" r="2.65"/><rect class="cls-1" x="317.87" y="524.04" width="5.4" height="5.4"/><circle class="cls-2" cx="320.57" cy="526.74" r="2.65"/><rect class="cls-1" x="405.09" y="748.36" width="5.4" height="5.4"/><circle class="cls-2" cx="407.79" cy="751.06" r="2.65"/><rect class="cls-1" x="253.86" y="583.09" width="5.4" height="5.4"/><circle class="cls-2" cx="256.56" cy="585.79" r="2.65"/><rect class="cls-1" x="364.79" y="857.14" width="5.4" height="5.4"/><circle class="cls-2" cx="367.49" cy="859.84" r="2.65"/><rect class="cls-1" x="246.51" y="703.97" width="5.4" height="5.4"/><circle class="cls-2" cx="249.21" cy="706.67" r="2.65"/><rect class="cls-1" x="371.84" y="921.05" width="5.4" height="5.4"/><circle class="cls-2" cx="374.54" cy="923.75" r="2.65"/><rect class="cls-1" x="135.62" y="618.59" width="5.4" height="5.4"/><circle class="cls-2" cx="138.32" cy="621.29" r="2.65"/><rect class="cls-1" y="593.3" width="5.4" height="5.4"/><circle class="cls-2" cx="2.7" cy="596" r="2.65"/><rect class="cls-1" x="69.23" y="660.61" width="5.4" height="5.4"/><circle class="cls-2" cx="71.93" cy="663.31" r="2.65"/><rect class="cls-1" x="2322.49" y="402.42" width="5.4" height="5.4"/><circle class="cls-2" cx="2325.19" cy="405.12" r="2.65"/><rect class="cls-1" x="2289.53" y="299.61" width="5.4" height="5.4"/><circle class="cls-2" cx="2292.23" cy="302.31" r="2.65"/><rect class="cls-1" x="2248.55" y="159.71" width="5.4" height="5.4"/><circle class="cls-2" cx="2251.25" cy="162.41" r="2.65"/><rect class="cls-1" x="2195.08" y="43" width="5.4" height="5.4"/><circle class="cls-2" cx="2197.78" cy="45.7" r="2.65"/><rect class="cls-1" x="2156.8" y="152.61" width="5.4" height="5.4"/><circle class="cls-2" cx="2159.5" cy="155.31" r="2.65"/><rect class="cls-1" x="2128.28" y="256.94" width="5.4" height="5.4"/><circle class="cls-2" cx="2130.98" cy="259.64" r="2.65"/><rect class="cls-1" x="2136.65" y="433.24" width="5.4" height="5.4"/><circle class="cls-2" cx="2139.35" cy="435.94" r="2.65"/><rect class="cls-1" x="2059.88" y="105.54" width="5.4" height="5.4"/><circle class="cls-2" cx="2062.58" cy="108.24" r="2.65"/><rect class="cls-1" x="2085.15" y="352.47" width="5.4" height="5.4"/><circle class="cls-2" cx="2087.85" cy="355.17" r="2.65"/><rect class="cls-1" x="1995.42" y="86.48" width="5.4" height="5.4"/><circle class="cls-2" cx="1998.12" cy="89.18" r="2.65"/><rect class="cls-1" x="1998.64" y="162.65" width="5.4" height="5.4"/><circle class="cls-2" cx="2001.34" cy="165.35" r="2.65"/><rect class="cls-1" x="1976.36" y="82.87" width="5.4" height="5.4"/><circle class="cls-2" cx="1979.06" cy="85.57" r="2.65"/><rect class="cls-1" x="1971.6" y="331.44" width="5.4" height="5.4"/><circle class="cls-2" cx="1974.3" cy="334.14" r="2.65"/><rect class="cls-1" x="1914.02" y="207.44" width="5.4" height="5.4"/><circle class="cls-2" cx="1916.72" cy="210.14" r="2.65"/><rect class="cls-1" x="1871.66" y="232.18" width="5.4" height="5.4"/><circle class="cls-2" cx="1874.36" cy="234.88" r="2.65"/><rect class="cls-1" x="1918.7" y="458.39" width="5.4" height="5.4"/><circle class="cls-2" cx="1921.4" cy="461.09" r="2.65"/><rect class="cls-1" x="1818.05" y="127.62" width="5.4" height="5.4"/><circle class="cls-2" cx="1820.75" cy="130.32" r="2.65"/><rect class="cls-1" x="1827.8" y="282.02" width="5.4" height="5.4"/><circle class="cls-2" cx="1830.5" cy="284.72" r="2.65"/><rect class="cls-1" x="1850.03" y="494.2" width="5.4" height="5.4"/><circle class="cls-2" cx="1852.73" cy="496.9" r="2.65"/><rect class="cls-1" x="1661.92" y="84.65" width="5.4" height="5.4"/><circle class="cls-2" cx="1664.62" cy="87.35" r="2.65"/><rect class="cls-1" x="1587.34" y="46.23" width="5.4" height="5.4"/><circle class="cls-2" cx="1590.04" cy="48.93" r="2.65"/><rect class="cls-1" x="1737.51" y="506.07" width="5.4" height="5.4"/><circle class="cls-2" cx="1740.21" cy="508.77" r="2.65"/><rect class="cls-1" x="1587.4" y="218.75" width="5.4" height="5.4"/><circle class="cls-2" cx="1590.1" cy="221.45" r="2.65"/><rect class="cls-1" x="1531.2" y="138.15" width="5.4" height="5.4"/><circle class="cls-2" cx="1533.9" cy="140.85" r="2.65"/><rect class="cls-1" x="1544.57" y="252.96" width="5.4" height="5.4"/><circle class="cls-2" cx="1547.27" cy="255.66" r="2.65"/><rect class="cls-1" x="1594.41" y="448.97" width="5.4" height="5.4"/><circle class="cls-2" cx="1597.11" cy="451.67" r="2.65"/><rect class="cls-1" x="1616.93" y="569.89" width="5.4" height="5.4"/><circle class="cls-2" cx="1619.63" cy="572.59" r="2.65"/><rect class="cls-1" x="1410.16" y="249.01" width="5.4" height="5.4"/><circle class="cls-2" cx="1412.86" cy="251.71" r="2.65"/><rect class="cls-1" x="1359.51" y="218.52" width="5.4" height="5.4"/><circle class="cls-2" cx="1362.21" cy="221.22" r="2.65"/><rect class="cls-1" x="1321.16" y="238.79" width="5.4" height="5.4"/><circle class="cls-2" cx="1323.86" cy="241.49" r="2.65"/><rect class="cls-1" x="1300.91" y="270.5" width="5.4" height="5.4"/><circle class="cls-2" cx="1303.61" cy="273.2" r="2.65"/><rect class="cls-1" x="1252.74" y="259.98" width="5.4" height="5.4"/><circle class="cls-2" cx="1255.44" cy="262.68" r="2.65"/><rect class="cls-1" x="1224.66" y="244.6" width="5.4" height="5.4"/><circle class="cls-2" cx="1227.36" cy="247.3" r="2.65"/><rect class="cls-1" x="1183.64" y="259.62" width="5.4" height="5.4"/><circle class="cls-2" cx="1186.34" cy="262.32" r="2.65"/><rect class="cls-1" x="1231.76" y="453.17" width="5.4" height="5.4"/><circle class="cls-2" cx="1234.46" cy="455.87" r="2.65"/><rect class="cls-1" x="1204.02" y="422.37" width="5.4" height="5.4"/><circle class="cls-2" cx="1206.72" cy="425.07" r="2.65"/><rect class="cls-1" x="1238.87" y="534.35" width="5.4" height="5.4"/><circle class="cls-2" cx="1241.57" cy="537.05" r="2.65"/><rect class="cls-1" x="1293.68" y="664.75" width="5.4" height="5.4"/><circle class="cls-2" cx="1296.38" cy="667.45" r="2.65"/><rect class="cls-1" x="1262.48" y="663.86" width="5.4" height="5.4"/><circle class="cls-2" cx="1265.18" cy="666.56" r="2.65"/><rect class="cls-1" x="1241.66" y="710.99" width="5.4" height="5.4"/><circle class="cls-2" cx="1244.36" cy="713.69" r="2.65"/><rect class="cls-1" x="1123.27" y="599.64" width="5.4" height="5.4"/><circle class="cls-2" cx="1125.97" cy="602.34" r="2.65"/><rect class="cls-1" x="987.57" y="388.6" width="5.4" height="5.4"/><circle class="cls-2" cx="990.27" cy="391.3" r="2.65"/><rect class="cls-1" x="1142.96" y="723.77" width="5.4" height="5.4"/><circle class="cls-2" cx="1145.66" cy="726.47" r="2.65"/><rect class="cls-1" x="1046.71" y="602.36" width="5.4" height="5.4"/><circle class="cls-2" cx="1049.41" cy="605.06" r="2.65"/><rect class="cls-1" x="1172.23" y="879.78" width="5.4" height="5.4"/><circle class="cls-2" cx="1174.93" cy="882.48" r="2.65"/><rect class="cls-1" x="929.87" y="567.04" width="5.4" height="5.4"/><circle class="cls-2" cx="932.57" cy="569.74" r="2.65"/><rect class="cls-1" x="1017.09" y="791.36" width="5.4" height="5.4"/><circle class="cls-2" cx="1019.79" cy="794.06" r="2.65"/><rect class="cls-1" x="865.86" y="626.09" width="5.4" height="5.4"/><circle class="cls-2" cx="868.56" cy="628.79" r="2.65"/><rect class="cls-1" x="976.79" y="900.14" width="5.4" height="5.4"/><circle class="cls-2" cx="979.49" cy="902.84" r="2.65"/><rect class="cls-1" x="858.51" y="746.97" width="5.4" height="5.4"/><circle class="cls-2" cx="861.21" cy="749.67" r="2.65"/><rect class="cls-1" x="983.84" y="964.05" width="5.4" height="5.4"/><circle class="cls-2" cx="986.54" cy="966.75" r="2.65"/><rect class="cls-1" x="747.62" y="661.59" width="5.4" height="5.4"/><circle class="cls-2" cx="750.32" cy="664.29" r="2.65"/><rect class="cls-1" x="612" y="636.3" width="5.4" height="5.4"/><circle class="cls-2" cx="614.7" cy="639" r="2.65"/><rect class="cls-1" x="681.23" y="703.61" width="5.4" height="5.4"/><circle class="cls-2" cx="683.93" cy="706.31" r="2.65"/></g></g></svg>