<svg xmlns="http://www.w3.org/2000/svg" viewBox="0 0 1715.89 1013.92"><defs><style>.cls-1{fill:none;}.cls-2,.cls-3{fill:#fff;stroke:#fff;stroke-miterlimit:10;}.cls-2{stroke-width:0.1px;}.cls-3{stroke-width:0.05px;}</style></defs><title>starsAsset 1</title><g id="Layer_2" data-name="Layer 2"><g id="Layer_1-2" data-name="Layer 1"><rect class="cls-1" x="1710.49" y="446.88" width="5.4" height="5.4"/><circle class="cls-2" cx="1713.19" cy="449.58" r="2.65"/><rect class="cls-1" x="1677.53" y="344.07" width="5.4" height="5.4"/><circle class="cls-2" cx="1680.23" cy="346.77" r="2.65"/><rect class="cls-1" x="1636.55" y="204.18" width="5.4" height="5.4"/><circle class="cls-2" cx="1639.25" cy="206.88" r="2.65"/><rect class="cls-1" x="1583.08" y="87.46" width="5.4" height="5.4"/><circle class="cls-2" cx="1585.78" cy="90.16" r="2.65"/><rect class="cls-1" x="1544.8" y="197.08" width="5.4" height="5.4"/><circle class="cls-2" cx="1547.5" cy="199.78" r="2.65"/><rect class="cls-1" x="1516.28" y="301.4" width="5.4" height="5.4"/><circle class="cls-2" cx="1518.98" cy="304.1" r="2.65"/><rect class="cls-1" x="1524.65" y="477.7" width="5.4" height="5.4"/><circle class="cls-2" cx="1527.35" cy="480.4" r="2.65"/><rect class="cls-1" x="1447.88" y="150.01" width="5.4" height="5.4"/><circle class="cls-2" cx="1450.58" cy="152.71" r="2.65"/><rect class="cls-1" x="1473.15" y="396.93" width="5.4" height="5.4"/><circle class="cls-2" cx="1475.85" cy="399.63" r="2.65"/><rect class="cls-1" x="1383.42" y="130.95" width="5.4" height="5.4"/><circle class="cls-2" cx="1386.12" cy="133.65" r="2.65"/><rect class="cls-1" x="1386.64" y="207.12" width="5.4" height="5.4"/><circle class="cls-2" cx="1389.34" cy="209.82" r="2.65"/><rect class="cls-1" x="1364.36" y="127.33" width="5.4" height="5.4"/><circle class="cls-2" cx="1367.06" cy="130.03" r="2.65"/><rect class="cls-1" x="1359.6" y="375.9" width="5.4" height="5.4"/><circle class="cls-2" cx="1362.3" cy="378.6" r="2.65"/><rect class="cls-1" x="1302.02" y="251.9" width="5.4" height="5.4"/><circle class="cls-2" cx="1304.72" cy="254.6" r="2.65"/><rect class="cls-1" x="1259.66" y="276.65" width="5.4" height="5.4"/><circle class="cls-2" cx="1262.36" cy="279.35" r="2.65"/><rect class="cls-1" x="1306.7" y="502.85" width="5.4" height="5.4"/><circle class="cls-2" cx="1309.4" cy="505.55" r="2.65"/><rect class="cls-1" x="1206.05" y="172.08" width="5.4" height="5.4"/><circle class="cls-2" cx="1208.75" cy="174.78" r="2.65"/><rect class="cls-1" x="1215.8" y="326.48" width="5.4" height="5.4"/><circle class="cls-2" cx="1218.5" cy="329.18" r="2.65"/><rect class="cls-1" x="1238.03" y="538.66" width="5.4" height="5.4"/><circle class="cls-2" cx="1240.73" cy="541.36" r="2.65"/><rect class="cls-1" x="1049.92" y="129.11" width="5.4" height="5.4"/><circle class="cls-2" cx="1052.62" cy="131.81" r="2.65"/><rect class="cls-1" x="975.34" y="90.7" width="5.4" height="5.4"/><circle class="cls-2" cx="978.04" cy="93.4" r="2.65"/><rect class="cls-1" x="1125.51" y="550.54" width="5.4" height="5.4"/><circle class="cls-2" cx="1128.21" cy="553.24" r="2.65"/><rect class="cls-1" x="975.4" y="263.21" width="5.4" height="5.4"/><circle class="cls-2" cx="978.1" cy="265.91" r="2.65"/><rect class="cls-1" x="919.2" y="182.62" width="5.4" height="5.4"/><circle class="cls-2" cx="921.9" cy="185.32" r="2.65"/><rect class="cls-1" x="932.57" y="297.43" width="5.4" height="5.4"/><circle class="cls-2" cx="935.27" cy="300.13" r="2.65"/><rect class="cls-1" x="982.41" y="493.43" width="5.4" height="5.4"/><circle class="cls-2" cx="985.11" cy="496.13" r="2.65"/><rect class="cls-1" x="1004.93" y="614.35" width="5.4" height="5.4"/><circle class="cls-2" cx="1007.63" cy="617.05" r="2.65"/><rect class="cls-1" x="798.16" y="293.47" width="5.4" height="5.4"/><circle class="cls-2" cx="800.86" cy="296.17" r="2.65"/><rect class="cls-1" x="747.51" y="262.99" width="5.4" height="5.4"/><circle class="cls-2" cx="750.21" cy="265.69" r="2.65"/><rect class="cls-1" x="709.16" y="283.25" width="5.4" height="5.4"/><circle class="cls-2" cx="711.86" cy="285.95" r="2.65"/><rect class="cls-1" x="688.91" y="314.96" width="5.4" height="5.4"/><circle class="cls-2" cx="691.61" cy="317.66" r="2.65"/><rect class="cls-1" x="640.74" y="304.44" width="5.4" height="5.4"/><circle class="cls-2" cx="643.44" cy="307.14" r="2.65"/><rect class="cls-1" x="612.66" y="289.07" width="5.4" height="5.4"/><circle class="cls-2" cx="615.36" cy="291.77" r="2.65"/><rect class="cls-1" x="571.64" y="304.09" width="5.4" height="5.4"/><circle class="cls-2" cx="574.34" cy="306.79" r="2.65"/><rect class="cls-1" x="619.76" y="497.64" width="5.4" height="5.4"/><circle class="cls-2" cx="622.46" cy="500.34" r="2.65"/><rect class="cls-1" x="592.02" y="466.83" width="5.4" height="5.4"/><circle class="cls-2" cx="594.72" cy="469.53" r="2.65"/><rect class="cls-1" x="626.87" y="578.82" width="5.4" height="5.4"/><circle class="cls-2" cx="629.57" cy="581.52" r="2.65"/><rect class="cls-1" x="681.68" y="709.21" width="5.4" height="5.4"/><circle class="cls-2" cx="684.38" cy="711.91" r="2.65"/><rect class="cls-1" x="650.48" y="708.32" width="5.4" height="5.4"/><circle class="cls-2" cx="653.18" cy="711.02" r="2.65"/><rect class="cls-1" x="629.66" y="755.45" width="5.4" height="5.4"/><circle class="cls-2" cx="632.36" cy="758.15" r="2.65"/><rect class="cls-1" x="511.27" y="644.11" width="5.4" height="5.4"/><circle class="cls-2" cx="513.97" cy="646.81" r="2.65"/><rect class="cls-1" x="375.57" y="433.06" width="5.4" height="5.4"/><circle class="cls-2" cx="378.27" cy="435.76" r="2.65"/><rect class="cls-1" x="530.96" y="768.24" width="5.4" height="5.4"/><circle class="cls-2" cx="533.66" cy="770.94" r="2.65"/><rect class="cls-1" x="434.71" y="646.82" width="5.4" height="5.4"/><circle class="cls-2" cx="437.41" cy="649.52" r="2.65"/><rect class="cls-1" x="560.23" y="924.24" width="5.4" height="5.4"/><circle class="cls-2" cx="562.93" cy="926.94" r="2.65"/><rect class="cls-1" x="317.87" y="611.51" width="5.4" height="5.4"/><circle class="cls-2" cx="320.57" cy="614.21" r="2.65"/><rect class="cls-1" x="405.09" y="835.83" width="5.4" height="5.4"/><circle class="cls-2" cx="407.79" cy="838.53" r="2.65"/><rect class="cls-1" x="253.86" y="670.55" width="5.4" height="5.4"/><circle class="cls-2" cx="256.56" cy="673.25" r="2.65"/><rect class="cls-1" x="364.79" y="944.6" width="5.4" height="5.4"/><circle class="cls-2" cx="367.49" cy="947.3" r="2.65"/><rect class="cls-1" x="246.51" y="791.44" width="5.4" height="5.4"/><circle class="cls-2" cx="249.21" cy="794.14" r="2.65"/><rect class="cls-1" x="371.84" y="1008.52" width="5.4" height="5.4"/><circle class="cls-2" cx="374.54" cy="1011.22" r="2.65"/><rect class="cls-1" x="135.62" y="706.05" width="5.4" height="5.4"/><circle class="cls-2" cx="138.32" cy="708.75" r="2.65"/><rect class="cls-1" y="680.77" width="5.4" height="5.4"/><circle class="cls-2" cx="2.7" cy="683.47" r="2.65"/><rect class="cls-1" x="69.23" y="748.07" width="5.4" height="5.4"/><circle class="cls-2" cx="71.93" cy="750.77" r="2.65"/><rect class="cls-1" x="1653.73" width="2.7" height="2.7"/><circle class="cls-3" cx="1655.08" cy="1.35" r="1.33"/><rect class="cls-1" x="1648.2" y="47.66" width="2.7" height="2.7"/><circle class="cls-3" cx="1649.55" cy="49.01" r="1.33"/><rect class="cls-1" x="1661.41" y="151.2" width="2.7" height="2.7"/><circle class="cls-3" cx="1662.76" cy="152.55" r="1.33"/><rect class="cls-1" x="1619.8" y="107.27" width="2.7" height="2.7"/><circle class="cls-3" cx="1621.15" cy="108.62" r="1.33"/><rect class="cls-1" x="1602.25" y="131.37" width="2.7" height="2.7"/><circle class="cls-3" cx="1603.6" cy="132.72" r="1.33"/><rect class="cls-1" x="1555.82" y="99.29" width="2.7" height="2.7"/><circle class="cls-3" cx="1557.17" cy="100.64" r="1.33"/><rect class="cls-1" x="1539.99" y="107.8" width="2.7" height="2.7"/><circle class="cls-3" cx="1541.34" cy="109.15" r="1.33"/><rect class="cls-1" x="1545.55" y="164.09" width="2.7" height="2.7"/><circle class="cls-3" cx="1546.9" cy="165.44" r="1.33"/><rect class="cls-1" x="1570.96" y="226.55" width="2.7" height="2.7"/><circle class="cls-3" cx="1572.31" cy="227.9" r="1.33"/><rect class="cls-1" x="1552.49" y="237.35" width="2.7" height="2.7"/><circle class="cls-3" cx="1553.84" cy="238.7" r="1.33"/><rect class="cls-1" x="1441.84" y="131.65" width="2.7" height="2.7"/><circle class="cls-3" cx="1443.19" cy="133" r="1.33"/><rect class="cls-1" x="1343.42" y="82.18" width="2.7" height="2.7"/><circle class="cls-3" cx="1344.77" cy="83.53" r="1.33"/><rect class="cls-1" x="1504.56" y="272.41" width="2.7" height="2.7"/><circle class="cls-3" cx="1505.91" cy="273.76" r="1.33"/><rect class="cls-1" x="1495.54" y="290.77" width="2.7" height="2.7"/><circle class="cls-3" cx="1496.89" cy="292.12" r="1.33"/><rect class="cls-1" x="1372.01" y="195.99" width="2.7" height="2.7"/><circle class="cls-3" cx="1373.36" cy="197.34" r="1.33"/><rect class="cls-1" x="1468.33" y="318.36" width="2.7" height="2.7"/><circle class="cls-3" cx="1469.68" cy="319.71" r="1.33"/><rect class="cls-1" x="1291.26" y="202.37" width="2.7" height="2.7"/><circle class="cls-3" cx="1292.61" cy="203.72" r="1.33"/><rect class="cls-1" x="1370.38" y="293.06" width="2.7" height="2.7"/><circle class="cls-3" cx="1371.73" cy="294.41" r="1.33"/><rect class="cls-1" x="1370.64" y="328.26" width="2.7" height="2.7"/><circle class="cls-3" cx="1371.99" cy="329.61" r="1.33"/><rect class="cls-1" x="1446.25" y="403.94" width="2.7" height="2.7"/><circle class="cls-3" cx="1447.6" cy="405.29" r="1.33"/><rect class="cls-1" x="1277.3" y="318.71" width="2.7" height="2.7"/><circle class="cls-3" cx="1278.65" cy="320.06" r="1.33"/><rect class="cls-1" x="1312.05" y="367.12" width="2.7" height="2.7"/><circle class="cls-3" cx="1313.4" cy="368.47" r="1.33"/><rect class="cls-1" x="1387.85" y="445.42" width="2.7" height="2.7"/><circle class="cls-3" cx="1389.2" cy="446.77" r="1.33"/><rect class="cls-1" x="1346.19" y="440.46" width="2.7" height="2.7"/><circle class="cls-3" cx="1347.54" cy="441.81" r="1.33"/><rect class="cls-1" x="1389.2" y="489.87" width="2.7" height="2.7"/><circle class="cls-3" cx="1390.55" cy="491.22" r="1.33"/><rect class="cls-1" x="1319.73" y="473.53" width="2.7" height="2.7"/><circle class="cls-3" cx="1321.08" cy="474.88" r="1.33"/><rect class="cls-1" x="1127.47" y="386.74" width="2.7" height="2.7"/><circle class="cls-3" cx="1128.82" cy="388.09" r="1.33"/><rect class="cls-1" x="1314.39" y="516.72" width="2.7" height="2.7"/><circle class="cls-3" cx="1315.74" cy="518.07" r="1.33"/><rect class="cls-1" x="1131.6" y="438.44" width="2.7" height="2.7"/><circle class="cls-3" cx="1132.95" cy="439.79" r="1.33"/><rect class="cls-1" x="1139.93" y="468.17" width="2.7" height="2.7"/><circle class="cls-3" cx="1141.28" cy="469.52" r="1.33"/><rect class="cls-1" x="1099.38" y="473.89" width="2.7" height="2.7"/><circle class="cls-3" cx="1100.73" cy="475.24" r="1.33"/><rect class="cls-1" x="1211.77" y="561.56" width="2.7" height="2.7"/><circle class="cls-3" cx="1213.12" cy="562.91" r="1.33"/><rect class="cls-1" x="1268.64" y="616.85" width="2.7" height="2.7"/><circle class="cls-3" cx="1269.99" cy="618.2" r="1.33"/><rect class="cls-1" x="1103.42" y="545.54" width="2.7" height="2.7"/><circle class="cls-3" cx="1104.77" cy="546.89" r="1.33"/><rect class="cls-1" x="1192.3" y="621.47" width="2.7" height="2.7"/><circle class="cls-3" cx="1193.65" cy="622.82" r="1.33"/><rect class="cls-1" x="1034.7" y="557.7" width="2.7" height="2.7"/><circle class="cls-3" cx="1036.05" cy="559.05" r="1.33"/><rect class="cls-1" x="1243.73" y="707.83" width="2.7" height="2.7"/><circle class="cls-3" cx="1245.08" cy="709.18" r="1.33"/><rect class="cls-1" x="1246.33" y="730.53" width="2.7" height="2.7"/><circle class="cls-3" cx="1247.68" cy="731.88" r="1.33"/><rect class="cls-1" x="1235.07" y="759.22" width="2.7" height="2.7"/><circle class="cls-3" cx="1236.42" cy="760.57" r="1.33"/><rect class="cls-1" x="1200.27" y="761.53" width="2.7" height="2.7"/><circle class="cls-3" cx="1201.62" cy="762.88" r="1.33"/><rect class="cls-1" x="1136.5" y="734.4" width="2.7" height="2.7"/><circle class="cls-3" cx="1137.85" cy="735.75" r="1.33"/><rect class="cls-1" x="1068.75" y="703.5" width="2.7" height="2.7"/><circle class="cls-3" cx="1070.1" cy="704.85" r="1.33"/><rect class="cls-1" x="1031.32" y="657.13" width="2.7" height="2.7"/><circle class="cls-3" cx="1032.67" cy="658.48" r="1.33"/><rect class="cls-1" x="1089.48" y="769.69" width="2.7" height="2.7"/><circle class="cls-3" cx="1090.83" cy="771.04" r="1.33"/><rect class="cls-1" x="1076.11" y="803.67" width="2.7" height="2.7"/><circle class="cls-3" cx="1077.46" cy="805.02" r="1.33"/><rect class="cls-1" x="1047.82" y="744.4" width="2.7" height="2.7"/><circle class="cls-3" cx="1049.17" cy="745.75" r="1.33"/><rect class="cls-1" x="1023.16" y="682.28" width="2.7" height="2.7"/><circle class="cls-3" cx="1024.51" cy="683.63" r="1.33"/><rect class="cls-1" x="1014.22" y="776.87" width="2.7" height="2.7"/><circle class="cls-3" cx="1015.57" cy="778.22" r="1.33"/><rect class="cls-1" x="1055.69" y="639.11" width="2.7" height="2.7"/><circle class="cls-3" cx="1057.04" cy="640.46" r="1.33"/><rect class="cls-1" x="944.91" y="838.2" width="2.7" height="2.7"/><circle class="cls-3" cx="946.26" cy="839.55" r="1.33"/><rect class="cls-1" x="987.11" y="714.38" width="2.7" height="2.7"/><circle class="cls-3" cx="988.46" cy="715.73" r="1.33"/><rect class="cls-1" x="1026.03" y="619.67" width="2.7" height="2.7"/><circle class="cls-3" cx="1027.38" cy="621.02" r="1.33"/><rect class="cls-1" x="894.52" y="772.82" width="2.7" height="2.7"/><circle class="cls-3" cx="895.87" cy="774.17" r="1.33"/><rect class="cls-1" x="1010.19" y="611.21" width="2.7" height="2.7"/><circle class="cls-3" cx="1011.54" cy="612.56" r="1.33"/><rect class="cls-1" x="930.02" y="674.5" width="2.7" height="2.7"/><circle class="cls-3" cx="931.37" cy="675.85" r="1.33"/><rect class="cls-1" x="1039.88" y="574.46" width="2.7" height="2.7"/><circle class="cls-3" cx="1041.23" cy="575.81" r="1.33"/><rect class="cls-1" x="999.02" y="576.62" width="2.7" height="2.7"/><circle class="cls-3" cx="1000.37" cy="577.97" r="1.33"/><rect class="cls-1" x="1007.73" y="544.96" width="2.7" height="2.7"/><circle class="cls-3" cx="1009.08" cy="546.31" r="1.33"/><rect class="cls-1" x="918.04" y="589.43" width="2.7" height="2.7"/><circle class="cls-3" cx="919.39" cy="590.78" r="1.33"/><rect class="cls-1" x="759.86" y="663.27" width="2.7" height="2.7"/><circle class="cls-3" cx="761.21" cy="664.62" r="1.33"/><rect class="cls-1" x="903.13" y="547.28" width="2.7" height="2.7"/><circle class="cls-3" cx="904.48" cy="548.63" r="1.33"/><rect class="cls-1" x="777.28" y="602.36" width="2.7" height="2.7"/><circle class="cls-3" cx="778.63" cy="603.71" r="1.33"/><rect class="cls-1" x="791" y="570.66" width="2.7" height="2.7"/><circle class="cls-3" cx="792.35" cy="572.01" r="1.33"/><rect class="cls-1" x="816.04" y="535.19" width="2.7" height="2.7"/><circle class="cls-3" cx="817.39" cy="536.54" r="1.33"/><rect class="cls-1" x="918.73" y="452.11" width="2.7" height="2.7"/><circle class="cls-3" cx="920.08" cy="453.46" r="1.33"/><rect class="cls-1" x="760.03" y="516.74" width="2.7" height="2.7"/><circle class="cls-3" cx="761.38" cy="518.09" r="1.33"/><rect class="cls-1" x="697.2" y="527.12" width="2.7" height="2.7"/><circle class="cls-3" cx="698.55" cy="528.47" r="1.33"/><rect class="cls-1" x="744.09" y="470.87" width="2.7" height="2.7"/><circle class="cls-3" cx="745.44" cy="472.22" r="1.33"/><rect class="cls-1" x="739.37" y="450.18" width="2.7" height="2.7"/><circle class="cls-3" cx="740.72" cy="451.53" r="1.33"/><rect class="cls-1" x="768.76" y="406.95" width="2.7" height="2.7"/><circle class="cls-3" cx="770.11" cy="408.3" r="1.33"/><rect class="cls-1" x="680.63" y="444.47" width="2.7" height="2.7"/><circle class="cls-3" cx="681.98" cy="445.82" r="1.33"/><rect class="cls-1" x="652.88" y="444.15" width="2.7" height="2.7"/><circle class="cls-3" cx="654.23" cy="445.5" r="1.33"/><rect class="cls-1" x="675.92" y="396.62" width="2.7" height="2.7"/><circle class="cls-3" cx="677.27" cy="397.97" r="1.33"/><rect class="cls-1" x="786.13" y="276.15" width="2.7" height="2.7"/><circle class="cls-3" cx="787.48" cy="277.5" r="1.33"/><rect class="cls-1" x="779.96" y="209.74" width="2.7" height="2.7"/><circle class="cls-3" cx="781.31" cy="211.09" r="1.33"/><rect class="cls-1" x="706.26" y="261.79" width="2.7" height="2.7"/><circle class="cls-3" cx="707.61" cy="263.14" r="1.33"/><rect class="cls-1" x="675.72" y="262.78" width="2.7" height="2.7"/><circle class="cls-3" cx="677.07" cy="264.13" r="1.33"/><rect class="cls-1" x="654.9" y="218.57" width="2.7" height="2.7"/><circle class="cls-3" cx="656.25" cy="219.92" r="1.33"/><rect class="cls-1" x="610.02" y="256.88" width="2.7" height="2.7"/><circle class="cls-3" cx="611.37" cy="258.23" r="1.33"/><rect class="cls-1" x="614.44" y="137.51" width="2.7" height="2.7"/><circle class="cls-3" cx="615.79" cy="138.86" r="1.33"/><rect class="cls-1" x="534.13" y="233.15" width="2.7" height="2.7"/><circle class="cls-3" cx="535.48" cy="234.5" r="1.33"/><rect class="cls-1" x="516.12" y="348.35" width="2.7" height="2.7"/><circle class="cls-3" cx="517.47" cy="349.7" r="1.33"/><rect class="cls-1" x="473.17" y="259.3" width="2.7" height="2.7"/><circle class="cls-3" cx="474.52" cy="260.65" r="1.33"/><rect class="cls-1" x="518.82" y="361.39" width="2.7" height="2.7"/><circle class="cls-3" cx="520.17" cy="362.74" r="1.33"/><rect class="cls-1" x="516.61" y="393.51" width="2.7" height="2.7"/><circle class="cls-3" cx="517.96" cy="394.86" r="1.33"/><rect class="cls-1" x="399.49" y="319.16" width="2.7" height="2.7"/><circle class="cls-3" cx="400.84" cy="320.51" r="1.33"/><rect class="cls-1" x="304.63" y="299.8" width="2.7" height="2.7"/><circle class="cls-3" cx="305.98" cy="301.15" r="1.33"/><rect class="cls-1" x="364" y="360.35" width="2.7" height="2.7"/><circle class="cls-3" cx="365.35" cy="361.7" r="1.33"/><rect class="cls-1" x="446.97" y="432.59" width="2.7" height="2.7"/><circle class="cls-3" cx="448.32" cy="433.94" r="1.33"/><rect class="cls-1" x="239.83" y="340.46" width="2.7" height="2.7"/><circle class="cls-3" cx="241.18" cy="341.81" r="1.33"/><rect class="cls-1" x="336.83" y="417.37" width="2.7" height="2.7"/><circle class="cls-3" cx="338.18" cy="418.72" r="1.33"/><rect class="cls-1" x="300.01" y="434.26" width="2.7" height="2.7"/><circle class="cls-3" cx="301.36" cy="435.61" r="1.33"/><rect class="cls-1" x="214.32" y="419.83" width="2.7" height="2.7"/><circle class="cls-3" cx="215.67" cy="421.18" r="1.33"/><rect class="cls-1" x="250.64" y="458.05" width="2.7" height="2.7"/><circle class="cls-3" cx="251.99" cy="459.4" r="1.33"/><rect class="cls-1" x="404.79" y="547.86" width="2.7" height="2.7"/><circle class="cls-3" cx="406.14" cy="549.21" r="1.33"/><rect class="cls-1" x="354.83" y="550.18" width="2.7" height="2.7"/><circle class="cls-3" cx="356.18" cy="551.53" r="1.33"/><rect class="cls-1" x="346.55" y="570.36" width="2.7" height="2.7"/><circle class="cls-3" cx="347.9" cy="571.71" r="1.33"/><rect class="cls-1" x="244.29" y="559.96" width="2.7" height="2.7"/><circle class="cls-3" cx="245.64" cy="561.31" r="1.33"/><rect class="cls-1" x="247.66" y="583.92" width="2.7" height="2.7"/><circle class="cls-3" cx="249.01" cy="585.27" r="1.33"/><rect class="cls-1" x="145.62" y="566.4" width="2.7" height="2.7"/><circle class="cls-3" cx="146.97" cy="567.75" r="1.33"/><rect class="cls-1" x="210.62" y="613.58" width="2.7" height="2.7"/><circle class="cls-3" cx="211.97" cy="614.93" r="1.33"/><rect class="cls-1" x="211.84" y="638.15" width="2.7" height="2.7"/><circle class="cls-3" cx="213.19" cy="639.5" r="1.33"/><rect class="cls-1" x="345.68" y="701.64" width="2.7" height="2.7"/><circle class="cls-3" cx="347.03" cy="702.99" r="1.33"/><rect class="cls-1" x="298" y="706.11" width="2.7" height="2.7"/><circle class="cls-3" cx="299.35" cy="707.46" r="1.33"/><rect class="cls-1" x="297.66" y="730.31" width="2.7" height="2.7"/><circle class="cls-3" cx="299.01" cy="731.66" r="1.33"/><rect class="cls-1" x="72.58" y="677.95" width="2.7" height="2.7"/><circle class="cls-3" cx="73.93" cy="679.3" r="1.33"/><rect class="cls-1" x="118.02" y="716.76" width="2.7" height="2.7"/><circle class="cls-3" cx="119.37" cy="718.11" r="1.33"/><rect class="cls-1" x="313.45" y="799.33" width="2.7" height="2.7"/><circle class="cls-3" cx="314.8" cy="800.68" r="1.33"/><rect class="cls-1" x="91.43" y="755.76" width="2.7" height="2.7"/><circle class="cls-3" cx="92.78" cy="757.11" r="1.33"/><rect class="cls-1" x="266.9" y="833.8" width="2.7" height="2.7"/><circle class="cls-3" cx="268.25" cy="835.15" r="1.33"/><rect class="cls-1" x="88.1" y="809.04" width="2.7" height="2.7"/><circle class="cls-3" cx="89.45" cy="810.39" r="1.33"/><rect class="cls-1" x="198.64" y="862.04" width="2.7" height="2.7"/><circle class="cls-3" cx="199.99" cy="863.39" r="1.33"/><rect class="cls-1" x="183.51" y="887.67" width="2.7" height="2.7"/><circle class="cls-3" cx="184.86" cy="889.02" r="1.33"/><rect class="cls-1" x="299.83" y="931.15" width="2.7" height="2.7"/><circle class="cls-3" cx="301.18" cy="932.5" r="1.33"/><rect class="cls-1" x="100.04" y="919.9" width="2.7" height="2.7"/><circle class="cls-3" cx="101.39" cy="921.25" r="1.33"/><rect class="cls-1" x="107.31" y="961.32" width="2.7" height="2.7"/><circle class="cls-3" cx="108.66" cy="962.67" r="1.33"/><rect class="cls-1" x="208.78" y="988.83" width="2.7" height="2.7"/><circle class="cls-3" cx="210.13" cy="990.18" r="1.33"/><rect class="cls-1" x="246.75" y="1011.14" width="2.7" height="2.7"/><circle class="cls-3" cx="248.1" cy="1012.49" r="1.33"/></g></g></svg>