<svg xmlns="http://www.w3.org/2000/svg" width="1440" height="685" viewBox="0 0 1440 685">
  <g fill="none" fill-rule="evenodd">
    <path fill="#898A89" d="M0,309.241165 C38.3333333,290.761222 64.1666667,277.927929 77.5,270.741284 C97.5,259.961318 92,262.271311 117.5,259.961318 C143,257.651325 204,264.581303 219,262.271311 C234,259.961318 325.5,272.28128 340.5,259.961318 C355.5,247.641356 407,235.321394 436,235.321394 C465,235.321394 559,235.321394 576,235.321394 C593,235.321394 665.5,214.531459 685.5,214.531459 C705.5,214.531459 792.5,235.321394 827,235.321394 C861.5,235.321394 978.5,197.591511 1008,183.731554 C1037.5,169.871597 1091.5,156.781638 1117,156.781638 C1142.5,156.781638 1199,137.531697 1225.5,118.281757 C1252,99.0318167 1305.5,65.1519217 1324,63.6119265 C1342.5,62.0719313 1386,53.6019576 1397.5,40.5119981 C1409,27.4220387 1410,14.3320793 1447,27.4220387 C1471.66667,36.1486783 1481.16667,185.007999 1475.5,474 C1224.48854,468.73077 986.155209,482.23077 760.5,514.5 C494.321876,552.564103 240.821876,609.397437 0,685 L0,309.241165 Z"/>
    <path fill="#FFF" d="M0,287.241165 C38.3333333,268.761222 64.1666667,255.927929 77.5,248.741284 C97.5,237.961318 92,240.271311 117.5,237.961318 C143,235.651325 204,242.581303 219,240.271311 C234,237.961318 325.5,250.28128 340.5,237.961318 C355.5,225.641356 407,213.321394 436,213.321394 C465,213.321394 559,213.321394 576,213.321394 C593,213.321394 665.5,192.531459 685.5,192.531459 C705.5,192.531459 792.5,213.321394 827,213.321394 C861.5,213.321394 978.5,175.591511 1008,161.731554 C1037.5,147.871597 1091.5,134.781638 1117,134.781638 C1142.5,134.781638 1199,115.531697 1225.5,96.281757 C1252,77.0318167 1305.5,43.1519217 1324,41.6119265 C1342.5,40.0719313 1386,31.6019576 1397.5,18.5119981 C1409,5.42203872 1410,-7.6679207 1447,5.42203872 C1471.66667,14.1486783 1481.16667,163.007999 1475.5,452 C1224.48854,446.73077 986.155209,460.23077 760.5,492.5 C494.321876,530.564103 240.821876,587.397437 0,663 L0,287.241165 Z"/>
  </g>
</svg>
