<svg xmlns="http://www.w3.org/2000/svg" width="1440" height="290" viewBox="0 0 1440 290">
  <path fill="#FFF" fill-rule="evenodd" d="M-3,1021.24116 C35.3333333,1002.76122 61.1666667,989.927929 74.5,982.741284 C94.5,971.961318 89,974.271311 114.5,971.961318 C140,969.651325 201,976.581303 216,974.271311 C231,971.961318 322.5,984.28128 337.5,971.961318 C352.5,959.641356 404,947.321394 433,947.321394 C462,947.321394 556,947.321394 573,947.321394 C590,947.321394 662.5,926.531459 682.5,926.531459 C702.5,926.531459 789.5,947.321394 824,947.321394 C858.5,947.321394 975.5,909.591511 1005,895.731554 C1034.5,881.871597 1088.5,868.781638 1114,868.781638 C1139.5,868.781638 1196,849.531697 1222.5,830.281757 C1249,811.031817 1302.5,777.151922 1321,775.611927 C1339.5,774.071931 1383,765.601958 1394.5,752.511998 C1406,739.422039 1407,726.332079 1444,739.422039 C1468.66667,748.148678 1481,967.341332 1481,1397 L-3,1397 L-3,1021.24116 Z" transform="translate(0 -734)"/>
</svg>
